<?xml version="1.0" encoding="UTF-8" standalone="no"?>
<!-- Created with Inkscape (http://www.inkscape.org/) -->

<svg
   version="1.1"
   id="svg1"
   width="424.23907"
   height="526.05725"
   viewBox="0 0 424.23907 526.05725"
   sodipodi:docname="Corncob-IV.svg"
   inkscape:version="1.4 (e7c3feb100, 2024-10-09)"
   inkscape:label="Layer 1"
   xmlns:inkscape="http://www.inkscape.org/namespaces/inkscape"
   xmlns:sodipodi="http://sodipodi.sourceforge.net/DTD/sodipodi-0.dtd"
   xmlns="http://www.w3.org/2000/svg"
   xmlns:svg="http://www.w3.org/2000/svg">
  <defs
     id="defs1">
    <clipPath
       clipPathUnits="userSpaceOnUse"
       id="clipPath24">
      <rect
         style="fill:none;stroke:#000000;stroke-width:0.999999;stroke-linecap:butt;stroke-linejoin:bevel;paint-order:stroke markers fill;stop-color:#000000"
         id="rect24"
         width="44.999748"
         height="77.937294"
         x="251.53429"
         y="222.73541" />
    </clipPath>
    <inkscape:path-effect
       effect="bspline"
       id="path-effect46"
       is_visible="true"
       lpeversion="1.3"
       weight="33.333333"
       steps="2"
       helper_size="0"
       apply_no_weight="true"
       apply_with_weight="true"
       only_selected="false"
       uniform="false" />
    <inkscape:path-effect
       effect="bspline"
       id="path-effect45"
       is_visible="true"
       lpeversion="1.3"
       weight="33.333333"
       steps="2"
       helper_size="0"
       apply_no_weight="true"
       apply_with_weight="true"
       only_selected="false"
       uniform="false" />
    <inkscape:path-effect
       effect="bspline"
       id="path-effect44"
       is_visible="true"
       lpeversion="1.3"
       weight="33.333333"
       steps="2"
       helper_size="0"
       apply_no_weight="true"
       apply_with_weight="true"
       only_selected="false"
       uniform="false" />
    <inkscape:path-effect
       effect="bspline"
       id="path-effect43"
       is_visible="true"
       lpeversion="1.3"
       weight="33.333333"
       steps="2"
       helper_size="0"
       apply_no_weight="true"
       apply_with_weight="true"
       only_selected="false"
       uniform="false" />
    <inkscape:path-effect
       effect="bspline"
       id="path-effect42"
       is_visible="true"
       lpeversion="1.3"
       weight="33.333333"
       steps="2"
       helper_size="0"
       apply_no_weight="true"
       apply_with_weight="true"
       only_selected="false"
       uniform="false" />
    <inkscape:path-effect
       effect="bspline"
       id="path-effect41"
       is_visible="true"
       lpeversion="1.3"
       weight="33.333333"
       steps="2"
       helper_size="0"
       apply_no_weight="true"
       apply_with_weight="true"
       only_selected="false"
       uniform="false" />
    <inkscape:path-effect
       effect="bspline"
       id="path-effect40"
       is_visible="true"
       lpeversion="1.3"
       weight="33.333333"
       steps="2"
       helper_size="0"
       apply_no_weight="true"
       apply_with_weight="true"
       only_selected="false"
       uniform="false" />
    <inkscape:path-effect
       effect="bspline"
       id="path-effect39"
       is_visible="true"
       lpeversion="1.3"
       weight="33.333333"
       steps="2"
       helper_size="0"
       apply_no_weight="true"
       apply_with_weight="true"
       only_selected="false"
       uniform="false" />
    <inkscape:path-effect
       effect="bspline"
       id="path-effect38"
       is_visible="true"
       lpeversion="1.3"
       weight="33.333333"
       steps="2"
       helper_size="0"
       apply_no_weight="true"
       apply_with_weight="true"
       only_selected="false"
       uniform="false" />
    <inkscape:path-effect
       effect="bspline"
       id="path-effect37"
       is_visible="true"
       lpeversion="1.3"
       weight="33.333333"
       steps="2"
       helper_size="0"
       apply_no_weight="true"
       apply_with_weight="true"
       only_selected="false"
       uniform="false" />
    <inkscape:path-effect
       effect="bspline"
       id="path-effect36"
       is_visible="true"
       lpeversion="1.3"
       weight="33.333333"
       steps="2"
       helper_size="0"
       apply_no_weight="true"
       apply_with_weight="true"
       only_selected="false"
       uniform="false" />
    <inkscape:path-effect
       effect="bspline"
       id="path-effect35"
       is_visible="true"
       lpeversion="1.3"
       weight="33.333333"
       steps="2"
       helper_size="0"
       apply_no_weight="true"
       apply_with_weight="true"
       only_selected="false"
       uniform="false" />
    <inkscape:path-effect
       effect="bspline"
       id="path-effect34"
       is_visible="true"
       lpeversion="1.3"
       weight="33.333333"
       steps="2"
       helper_size="0"
       apply_no_weight="true"
       apply_with_weight="true"
       only_selected="false"
       uniform="false" />
    <inkscape:path-effect
       effect="bspline"
       id="path-effect33"
       is_visible="true"
       lpeversion="1.3"
       weight="33.333333"
       steps="2"
       helper_size="0"
       apply_no_weight="true"
       apply_with_weight="true"
       only_selected="false"
       uniform="false" />
    <inkscape:path-effect
       effect="bspline"
       id="path-effect32"
       is_visible="true"
       lpeversion="1.3"
       weight="33.333333"
       steps="2"
       helper_size="0"
       apply_no_weight="true"
       apply_with_weight="true"
       only_selected="false"
       uniform="false" />
    <inkscape:path-effect
       effect="bspline"
       id="path-effect31"
       is_visible="true"
       lpeversion="1.3"
       weight="33.333333"
       steps="2"
       helper_size="0"
       apply_no_weight="true"
       apply_with_weight="true"
       only_selected="false"
       uniform="false" />
    <inkscape:path-effect
       effect="bspline"
       id="path-effect30"
       is_visible="true"
       lpeversion="1.3"
       weight="33.333333"
       steps="2"
       helper_size="0"
       apply_no_weight="true"
       apply_with_weight="true"
       only_selected="false"
       uniform="false" />
    <inkscape:path-effect
       effect="bspline"
       id="path-effect29"
       is_visible="true"
       lpeversion="1.3"
       weight="33.333333"
       steps="2"
       helper_size="0"
       apply_no_weight="true"
       apply_with_weight="true"
       only_selected="false"
       uniform="false" />
    <inkscape:path-effect
       effect="bspline"
       id="path-effect28"
       is_visible="true"
       lpeversion="1.3"
       weight="33.333333"
       steps="2"
       helper_size="0"
       apply_no_weight="true"
       apply_with_weight="true"
       only_selected="false"
       uniform="false" />
    <inkscape:path-effect
       effect="bspline"
       id="path-effect27"
       is_visible="true"
       lpeversion="1.3"
       weight="33.333333"
       steps="2"
       helper_size="0"
       apply_no_weight="true"
       apply_with_weight="true"
       only_selected="false"
       uniform="false" />
    <inkscape:path-effect
       effect="bspline"
       id="path-effect26"
       is_visible="true"
       lpeversion="1.3"
       weight="33.333333"
       steps="2"
       helper_size="0"
       apply_no_weight="true"
       apply_with_weight="true"
       only_selected="false"
       uniform="false" />
    <inkscape:path-effect
       effect="bspline"
       id="path-effect25"
       is_visible="true"
       lpeversion="1.3"
       weight="33.333333"
       steps="2"
       helper_size="0"
       apply_no_weight="true"
       apply_with_weight="true"
       only_selected="false"
       uniform="false" />
    <inkscape:path-effect
       effect="bspline"
       id="path-effect24"
       is_visible="true"
       lpeversion="1.3"
       weight="33.333333"
       steps="2"
       helper_size="0"
       apply_no_weight="true"
       apply_with_weight="true"
       only_selected="false"
       uniform="false" />
    <inkscape:path-effect
       effect="bspline"
       id="path-effect23"
       is_visible="true"
       lpeversion="1.3"
       weight="33.333333"
       steps="2"
       helper_size="0"
       apply_no_weight="true"
       apply_with_weight="true"
       only_selected="false"
       uniform="false" />
    <inkscape:path-effect
       effect="bspline"
       id="path-effect22"
       is_visible="true"
       lpeversion="1.3"
       weight="33.333333"
       steps="2"
       helper_size="0"
       apply_no_weight="true"
       apply_with_weight="true"
       only_selected="false"
       uniform="false" />
    <inkscape:path-effect
       effect="bspline"
       id="path-effect21"
       is_visible="true"
       lpeversion="1.3"
       weight="33.333333"
       steps="2"
       helper_size="0"
       apply_no_weight="true"
       apply_with_weight="true"
       only_selected="false"
       uniform="false" />
    <inkscape:path-effect
       effect="bspline"
       id="path-effect20"
       is_visible="true"
       lpeversion="1.3"
       weight="33.333333"
       steps="2"
       helper_size="0"
       apply_no_weight="true"
       apply_with_weight="true"
       only_selected="false"
       uniform="false" />
    <inkscape:path-effect
       effect="bspline"
       id="path-effect19"
       is_visible="true"
       lpeversion="1.3"
       weight="33.333333"
       steps="2"
       helper_size="0"
       apply_no_weight="true"
       apply_with_weight="true"
       only_selected="false"
       uniform="false" />
    <inkscape:path-effect
       effect="bspline"
       id="path-effect18"
       is_visible="true"
       lpeversion="1.3"
       weight="33.333333"
       steps="2"
       helper_size="0"
       apply_no_weight="true"
       apply_with_weight="true"
       only_selected="false"
       uniform="false" />
    <inkscape:path-effect
       effect="bspline"
       id="path-effect17"
       is_visible="true"
       lpeversion="1.3"
       weight="33.333333"
       steps="2"
       helper_size="0"
       apply_no_weight="true"
       apply_with_weight="true"
       only_selected="false"
       uniform="false" />
    <inkscape:path-effect
       effect="bspline"
       id="path-effect16"
       is_visible="true"
       lpeversion="1.3"
       weight="33.333333"
       steps="2"
       helper_size="0"
       apply_no_weight="true"
       apply_with_weight="true"
       only_selected="false"
       uniform="false" />
    <inkscape:path-effect
       effect="bspline"
       id="path-effect15"
       is_visible="true"
       lpeversion="1.3"
       weight="33.333333"
       steps="2"
       helper_size="0"
       apply_no_weight="true"
       apply_with_weight="true"
       only_selected="false"
       uniform="false" />
    <inkscape:path-effect
       effect="bspline"
       id="path-effect14"
       is_visible="true"
       lpeversion="1.3"
       weight="33.333333"
       steps="2"
       helper_size="0"
       apply_no_weight="true"
       apply_with_weight="true"
       only_selected="false"
       uniform="false" />
    <inkscape:path-effect
       effect="bspline"
       id="path-effect13"
       is_visible="true"
       lpeversion="1.3"
       weight="33.333333"
       steps="2"
       helper_size="0"
       apply_no_weight="true"
       apply_with_weight="true"
       only_selected="false"
       uniform="false" />
    <inkscape:path-effect
       effect="bspline"
       id="path-effect12"
       is_visible="true"
       lpeversion="1.3"
       weight="33.333333"
       steps="2"
       helper_size="0"
       apply_no_weight="true"
       apply_with_weight="true"
       only_selected="false"
       uniform="false" />
    <inkscape:path-effect
       effect="bspline"
       id="path-effect11"
       is_visible="true"
       lpeversion="1.3"
       weight="33.333333"
       steps="2"
       helper_size="0"
       apply_no_weight="true"
       apply_with_weight="true"
       only_selected="false"
       uniform="false" />
    <inkscape:path-effect
       effect="bspline"
       id="path-effect10"
       is_visible="true"
       lpeversion="1.3"
       weight="33.333333"
       steps="2"
       helper_size="0"
       apply_no_weight="true"
       apply_with_weight="true"
       only_selected="false"
       uniform="false" />
    <inkscape:path-effect
       effect="bspline"
       id="path-effect9"
       is_visible="true"
       lpeversion="1.3"
       weight="33.333333"
       steps="2"
       helper_size="0"
       apply_no_weight="true"
       apply_with_weight="true"
       only_selected="false"
       uniform="false" />
    <inkscape:path-effect
       effect="bspline"
       id="path-effect8"
       is_visible="true"
       lpeversion="1.3"
       weight="33.333333"
       steps="2"
       helper_size="0"
       apply_no_weight="true"
       apply_with_weight="true"
       only_selected="false"
       uniform="false" />
    <inkscape:path-effect
       effect="bspline"
       id="path-effect7"
       is_visible="true"
       lpeversion="1.3"
       weight="33.333333"
       steps="2"
       helper_size="0"
       apply_no_weight="true"
       apply_with_weight="true"
       only_selected="false"
       uniform="false" />
    <inkscape:path-effect
       effect="bspline"
       id="path-effect6"
       is_visible="true"
       lpeversion="1.3"
       weight="33.333333"
       steps="2"
       helper_size="0"
       apply_no_weight="true"
       apply_with_weight="true"
       only_selected="false"
       uniform="false" />
    <inkscape:path-effect
       effect="bspline"
       id="path-effect5"
       is_visible="true"
       lpeversion="1.3"
       weight="33.333333"
       steps="2"
       helper_size="0"
       apply_no_weight="true"
       apply_with_weight="true"
       only_selected="false"
       uniform="false" />
    <inkscape:path-effect
       effect="bspline"
       id="path-effect4"
       is_visible="true"
       lpeversion="1.3"
       weight="33.333333"
       steps="2"
       helper_size="0"
       apply_no_weight="true"
       apply_with_weight="true"
       only_selected="false"
       uniform="false" />
    <inkscape:path-effect
       effect="bspline"
       id="path-effect3"
       is_visible="true"
       lpeversion="1.3"
       weight="33.333333"
       steps="2"
       helper_size="0"
       apply_no_weight="true"
       apply_with_weight="true"
       only_selected="false"
       uniform="false" />
    <inkscape:path-effect
       effect="bspline"
       id="path-effect2"
       is_visible="true"
       lpeversion="1.3"
       weight="33.333333"
       steps="2"
       helper_size="0"
       apply_no_weight="true"
       apply_with_weight="true"
       only_selected="false"
       uniform="false" />
    <inkscape:path-effect
       effect="bspline"
       id="path-effect1"
       is_visible="true"
       lpeversion="1.3"
       weight="33.333333"
       steps="2"
       helper_size="0"
       apply_no_weight="true"
       apply_with_weight="true"
       only_selected="false"
       uniform="false" />
    <inkscape:path-effect
       effect="bspline"
       id="path-effect14-7"
       is_visible="true"
       lpeversion="1.3"
       weight="33.333333"
       steps="2"
       helper_size="0"
       apply_no_weight="true"
       apply_with_weight="true"
       only_selected="false"
       uniform="false" />
    <inkscape:path-effect
       effect="bspline"
       id="path-effect14-2"
       is_visible="true"
       lpeversion="1.3"
       weight="33.333333"
       steps="2"
       helper_size="0"
       apply_no_weight="true"
       apply_with_weight="true"
       only_selected="false"
       uniform="false" />
  </defs>
  <sodipodi:namedview
     id="namedview1"
     pagecolor="#ffffff"
     bordercolor="#000000"
     borderopacity="0.25"
     inkscape:showpageshadow="2"
     inkscape:pageopacity="0.0"
     inkscape:pagecheckerboard="0"
     inkscape:deskcolor="#d1d1d1"
     showgrid="false"
     inkscape:zoom="0.96"
     inkscape:cx="290.625"
     inkscape:cy="232.29167"
     inkscape:window-width="1920"
     inkscape:window-height="1011"
     inkscape:window-x="0"
     inkscape:window-y="0"
     inkscape:window-maximized="1"
     inkscape:current-layer="layer1" />
  <g
     inkscape:groupmode="layer"
     id="layer1"
     inkscape:label="Layer 1"
     transform="translate(-499.2441,-70.153183)">
    <path
       id="path3"
       style="display:inline;opacity:1;fill:#447821;stroke:none;stroke-width:1.51181;stroke-linecap:round"
       d="m 713.45894,115.661 c 0,0 -19.44586,1.58007 -19.93945,1.58007 -0.49358,0 -21.71875,6.81055 -21.71875,6.81055 l -20.82812,9.08203 -41.16602,25.86524 -24.38281,17.27539 -13.52344,11.94336 -1.08594,3.55468 c 0,0 0.78963,2.36808 1.28321,2.4668 0.49359,0.0987 2.76423,0.19922 3.25781,0.19922 0.49359,0 8.19197,-2.96273 8.68555,-3.16016 0.49357,-0.19743 21.81785,-14.31339 22.41015,-14.41211 0.5923,-0.0987 28.62695,-15.49804 28.62695,-15.49804 l 23.49415,-8.98438 c 0,0 29.22113,-8.29101 30.99804,-8.29101 1.7769,0 11.8452,-1.97461 12.4375,-1.97461 0.5923,0 3.25749,0.0976 3.65235,0.0976 0.39487,0 1.08577,0.39581 1.2832,1.18555 0.19743,0.78973 -3.25675,9.27985 -3.35547,9.77344 -0.0987,0.49358 -11.45117,24.57957 -11.45117,25.17187 0,0.5923 -3.25854,16.98013 -3.55469,17.375 -0.2861,0.38147 -2.70552,5.57376 -3.05273,6.29297 -0.70994,-0.88313 -2.2837,-2.08636 -2.375,-2.54297 -0.0987,-0.49358 -2.86367,-5.5274 -3.55469,-6.61328 -0.69102,-1.08589 -7.89671,-6.02204 -8.78516,-6.51562 -0.88845,-0.49359 -6.51562,-2.86329 -6.51562,-2.86329 l -12.53711,0.19727 c 0,0 -15.69699,5.72711 -17.17774,6.2207 -1.48075,0.49358 -18.95351,10.9567 -19.64453,11.35157 -0.69101,0.39486 -29.12109,20.5332 -29.12109,20.5332 l -22.80274,19.44726 -12.63671,10.66211 -0.88868,4.04688 4.04883,2.07226 7.30469,-3.55273 30.4043,-16.18945 27.24609,-11.45117 27.54102,-4.14649 8.87695,2.46875 2.66797,2.95313 c -0.0786,0.42549 -0.12465,0.91827 -0.14258,1.52343 -0.0659,2.22556 0.098,5.75402 -0.54492,9.79297 -0.64294,4.03895 -2.09258,8.58782 -4.28516,15.09961 -2.11008,6.2668 -4.93295,14.4326 -7.72656,22.6875 l -11.18555,12.70117 -22.4082,32.2793 -14.41211,27.14648 -7.00977,20.73047 -5.72461,17.67188 -3.35742,30.69922 0.97852,1.76172 c -0.46801,2.06443 -0.46698,3.75046 -0.32227,5.44726 0.26356,3.09031 0.82348,6.37021 1.10352,8.00977 0.28004,1.63956 0.28092,1.63873 0.38086,3.44531 0.0999,1.80658 0.29953,5.42021 0.22265,8.92578 -0.0769,3.50557 -0.43132,6.90388 -1.61523,10.84766 -1.18391,3.94377 -3.19823,8.43267 -5.54297,14.02929 -2.34474,5.59663 -5.01817,12.30009 -6.97851,17.06641 -1.96035,4.76633 -3.20735,7.59542 -3.70704,9.14063 -0.49968,1.54521 -0.25371,1.80652 1.32227,2.52148 1.57598,0.71496 4.48186,1.88329 6.61133,2.51367 2.12947,0.63038 3.48224,0.72154 4.67383,0.65235 1.19158,-0.0692 2.22355,-0.29823 3.72265,-1.70508 1.4991,-1.40686 3.46714,-3.99051 5.77344,-7.13477 2.3063,-3.14425 4.94921,-6.85014 8.31641,-10.00976 3.3672,-3.15962 7.45693,-5.77342 12.98437,-8.7793 5.52744,-3.00588 12.49204,-6.40319 21.26367,-10.78516 8.77163,-4.38197 19.34983,-9.7467 27.29883,-14.11328 7.94901,-4.36657 13.26953,-7.73483 18.68164,-11.73242 5.41211,-3.99759 10.91511,-8.62524 16.87305,-14.05273 5.95793,-5.4275 12.36993,-11.65464 17.22851,-16.60547 4.85859,-4.95084 8.16511,-8.62573 12.43946,-13.36133 4.27434,-4.73561 9.51631,-10.53213 14.72265,-16.38086 5.20634,-5.84873 15.54784,-17.65232 19.33789,-22.07227 2.64227,-3.08139 7.17143,-8.38269 12.25391,-14.64843 l 0.14258,0.0195 c 0.46041,-0.55249 7.91992,-8.28711 7.91992,-8.28711 l 1.56445,0.82812 -6.90625,13.44336 -12.98242,19.70508 -9.02539,12.70703 -9.11523,10.2207 -10.4043,8.28907 -9.76172,6.25976 -4.05078,2.94727 c 0,0 -2.21036,5.06442 -2.39453,5.70898 -0.18416,0.64457 -0.27539,2.66992 -0.27539,2.66992 l 14.64062,-6.7207 c 0,0 23.11157,-12.98381 23.66407,-13.16797 0.55249,-0.18416 22.83593,-13.35156 22.83593,-13.35156 l 22.83594,-15.83789 18.78516,-20.44336 5.06445,-15.37695 c 0,0 -1.6582,-8.83952 -1.6582,-9.57617 0,-0.73664 -3.31446,-10.03711 -3.31446,-10.03711 l -6.6289,-6.81446 -10.67578,-4.05468 8.08984,-12.38086 14.04687,-14.83594 18.09961,-17.70703 14.44141,-13.74805 20.9707,-29.67383 15.03321,-40.35547 1.68164,-6.33007 -1.38477,-0.99024 c 0,0 -7.12136,4.74818 -7.71484,5.04492 -0.59347,0.29674 -18.99163,15.33092 -19.18946,15.72657 -0.19782,0.39565 -13.55064,9.79324 -14.63867,10.38671 l -4.94531,10.38477 -10.97852,24.43164 -15.6289,25.02539 -7.91211,9.79102 -15.92578,22.75 -11.86914,13.75 5.04492,-0.69336 8.60547,-0.98828 1.14648,0.16796 -3.70117,0.43165 -0.83789,0.98828 c -0.42653,0.0701 -0.70237,0.0901 -1.19141,0.17578 -5.73699,1.00562 -15.76015,2.88568 -24.13476,4.40234 -8.37462,1.51667 -15.10034,2.67015 -26.72266,7.00586 -11.62232,4.33572 -28.13972,11.85201 -37.84961,16.07227 -9.70988,4.22025 -12.61156,5.14368 -14.02929,5.16015 -1.41774,0.0165 -1.35216,-0.87259 -0.74219,-2.75195 0.60997,-1.87936 1.76411,-4.74895 3.21484,-10.56836 1.45073,-5.81941 3.19785,-14.58919 4.94531,-23.0957 1.74747,-8.50652 3.49575,-16.74911 4.13868,-23.27735 0.64292,-6.52823 0.18024,-11.34079 -0.99024,-15.77539 -1.17048,-4.43459 -3.04882,-8.49088 -5.40625,-11.77148 -1.71653,-2.38873 -3.89143,-4.43961 -6.43945,-6.61133 l 2.28906,-1.91602 c 0,0 -1.67791,-9.27879 -1.48047,-9.87109 0.19743,-0.5923 5.13281,-4.83789 5.13281,-4.83789 0,0 27.3452,-29.12109 27.9375,-29.12109 0.5923,0 16.38672,-13.82032 16.38672,-13.82032 0,0 24.97501,-20.43359 25.66602,-20.43359 0.69102,0 28.82617,-18.26367 28.82617,-18.26367 l 11.54883,-11.35156 c 0,0 2.46875,-8.78483 2.46875,-9.17969 0,-0.39487 -2.56641,-1.77735 -2.56641,-1.77735 l -10.75976,5.92188 -31.09571,22.90234 -23.98828,15.20313 -1.08593,-3.25781 -0.29688,-28.72657 -8.98242,-11.2539 z" />
    <path
       id="path2"
       style="display:inline;opacity:1;fill:#ffcc00;stroke:none;stroke-width:1.51181;stroke-linecap:round"
       d="m 845.42965,126.79185 c -3.49579,-0.14125 -8.15524,0.52944 -13.73438,1.83594 -5.57914,1.30651 -12.077,3.2494 -19.01562,5.61524 -6.93862,2.36583 -14.31875,5.15538 -23.58789,10.25781 -9.26915,5.10243 -20.42737,12.51712 -29.41407,18.85547 -8.98669,6.33835 -15.80032,11.59982 -22.13867,16.89648 -6.33834,5.29667 -12.1995,10.62755 -20.60351,18.96094 -8.40402,8.33339 -19.35098,19.66913 -24.8418,25.6543 -5.49082,5.98517 -5.5256,6.62076 -5.03125,8.0332 0.49435,1.41244 1.51796,3.60164 3.21289,7.15039 1.69493,3.54875 4.06115,8.45596 5.70313,13.15234 1.64197,4.69638 2.55968,9.18025 2.7539,14.84766 0.19422,5.66742 -0.33652,12.51844 -1.0957,18.55664 -0.75919,6.03821 -1.74641,11.26413 -3.45899,18.29102 -1.71258,7.02689 -4.14989,15.85369 -5.59765,21.15039 -1.44777,5.29669 -1.90727,7.06176 1.00586,6.77929 2.91313,-0.28246 9.19859,-2.61188 18.25586,-6.49609 9.05727,-3.88421 20.88675,-9.32218 33.35156,-13.34766 11.64917,-3.76206 23.7978,-6.2967 31.90234,-9.23437 2.10737,-0.0489 4.81396,-0.62135 6.59766,-1.58399 1.86027,-1.00396 2.71334,-2.42902 3.19141,-3.72265 3.00507,-2.49352 5.5035,-5.63717 9.0332,-10.12305 6.12644,-7.78605 15.41259,-19.54519 23.76367,-31.95703 8.35108,-12.41184 15.76481,-25.47704 21.29102,-36.05273 5.5262,-10.5757 9.16418,-18.66181 12.2539,-26.74805 3.08973,-8.08624 5.63242,-16.17115 7.50391,-23.46289 1.87149,-7.29175 3.07243,-13.78824 3.47851,-18.87305 0.40609,-5.08481 0.0171,-8.75698 -0.31836,-11.61719 -0.33545,-2.8602 -0.61849,-4.90873 -1.66015,-6.56836 -1.04167,-1.65962 -2.84251,-2.93066 -4.9082,-4.04296 -2.0657,-1.11231 -4.3968,-2.06578 -7.89258,-2.20704 z" />
    <path
       id="path1"
       style="display:inline;fill:#000000;stroke-linecap:round"
       d="M 607.24821 360.48649 C 603.94863 360.48648 599.39806 361.32516 595.18388 362.71516 C 590.96971 364.10517 587.15081 366.03893 583.4022 368.10937 C 579.6536 370.17983 575.94405 372.40481 572.06221 374.99997 C 568.18037 377.59513 564.13503 380.55503 561.14077 382.93732 C 558.14652 385.31961 556.23647 387.01052 555.48631 388.31635 C 555.29877 388.6428 555.17616 388.96512 555.17402 389.32045 C 555.17202 389.67579 555.33874 390.04559 555.56872 390.2696 C 556.02867 390.71762 556.54281 390.76281 556.98993 390.81249 C 557.88418 390.91189 558.93683 390.77609 560.51185 389.99997 C 562.08687 389.22388 564.2516 387.83476 567.07064 386.05659 C 569.88968 384.27843 573.33856 382.12302 577.18389 380.18961 C 581.02922 378.2562 585.29293 376.53275 589.50774 375.19949 C 593.72256 373.86623 597.9096 372.91622 601.01544 372.19949 C 602.56837 371.84112 603.84075 371.55524 604.62339 371.51564 C 605.01471 371.49584 605.26719 371.54921 605.33978 371.58431 C 605.41238 371.61941 605.37492 371.55135 605.39472 371.68335 C 605.43432 371.94732 605.17592 373.05916 604.65014 374.30889 C 604.12436 375.55863 603.40032 377.02453 602.74388 378.43587 C 601.43101 381.25854 600.41901 383.80633 599.77352 386.05443 C 599.12802 388.30253 598.85996 390.21774 598.59954 392.08406 A 0.75590497 0.75590497 0 0 0 598.65087 392.28069 C 598.61287 392.31179 598.57067 392.34603 598.53304 392.37683 C 598.24005 391.5043 597.85111 390.71545 597.32219 389.95515 C 596.20548 388.34989 594.47923 386.75672 592.12099 385.97852 C 590.94188 385.58941 589.63025 385.41291 588.21304 385.4472 C 586.79583 385.4815 585.2733 385.72724 583.66822 386.18744 C 580.45807 387.10784 576.94057 388.87366 573.49787 390.97876 C 570.05517 393.08385 566.69356 395.52922 563.25378 398.18526 C 559.81399 400.8413 556.29036 403.7137 553.60752 406.02574 C 550.92468 408.33778 549.09427 410.07035 548.11499 411.25947 C 547.62536 411.85402 547.31352 412.29225 547.22294 412.85706 C 547.17764 413.13947 547.22394 413.48258 547.39427 413.74405 C 547.56396 414.00553 547.8047 414.15877 548.02535 414.25586 C 548.46665 414.45003 549.06637 414.50343 549.84993 414.33176 C 550.63349 414.16006 551.63715 413.77446 553.04077 413.03923 C 555.84799 411.56878 560.19992 408.7248 564.49426 406.69514 C 568.78861 404.66548 573.06745 403.42293 577.06028 402.60719 C 581.0531 401.79146 584.77558 401.50857 586.38702 402.17418 C 587.19274 402.50698 587.53219 402.94184 587.69545 403.79128 C 587.85872 404.64072 587.73105 405.92549 587.28919 407.59803 C 586.59909 410.21052 585.18846 413.7692 583.81931 417.33971 C 581.74951 420.7601 579.68589 424.15962 577.58799 427.05103 C 575.45731 429.98763 573.22529 432.48001 570.97642 436.00765 C 568.72756 439.53529 566.50726 444.02737 564.86727 447.8103 C 563.22727 451.59322 562.16897 454.67345 561.31426 457.78547 C 560.45956 460.89748 559.80349 464.05173 559.47089 466.76956 C 559.1383 469.48739 559.13674 471.74011 559.13474 473.95149 A 0.75590497 0.75590497 0 0 0 559.21065 474.13583 C 559.19675 474.52538 559.19192 474.92585 559.22872 475.4045 C 559.40847 477.74127 560.03993 481.46932 559.77161 484.48257 C 559.5033 487.49583 558.34173 489.9609 557.04486 492.90642 C 555.748 495.85194 554.37794 499.16389 553.00969 502.47099 A 0.75590497 0.75590497 0 0 0 553.00969 502.48834 A 0.75590497 0.75590497 0 0 0 552.97643 502.51581 A 0.75590497 0.75590497 0 0 0 553.29667 503.53509 C 554.29494 504.05592 555.31281 504.59094 556.31836 504.9534 C 557.32391 505.31587 558.34433 505.52748 559.32776 505.23822 C 560.31118 504.94897 561.02105 504.2222 561.62872 503.41003 C 562.23639 502.59786 562.76194 501.66253 563.31233 500.79461 C 564.41311 499.05878 565.59705 497.54579 568.23594 495.9122 C 570.87483 494.27861 575.0445 492.53302 579.53546 490.39654 C 584.02642 488.26007 588.83021 485.72824 593.17208 482.83365 C 597.51396 479.93907 601.36603 476.6974 604.734 473.46065 C 606.04713 472.19867 607.28724 470.92139 608.53134 469.6033 C 608.35327 469.89209 608.19825 470.18106 608.08387 470.46065 C 607.94066 470.81072 607.84602 471.14539 607.81062 471.47269 C 607.77522 471.79998 607.77122 472.13831 608.00002 472.49775 C 608.22876 472.85718 608.7523 473.03059 609.10966 472.998 C 609.46703 472.9654 609.78402 472.84607 610.18532 472.67197 C 610.98792 472.32379 612.10231 471.71427 613.77375 470.80257 C 617.11662 468.97919 622.67555 465.93962 627.37712 463.19704 C 632.07869 460.45445 635.9289 458.00612 639.10314 455.44909 C 642.27737 452.89206 644.75256 450.24537 646.41012 447.87102 C 648.06767 445.49668 648.91856 443.3463 649.10361 441.03319 C 649.28865 438.72009 648.84402 436.28615 647.99614 434.4491 C 647.14827 432.61205 645.89938 431.46204 644.73229 430.56428 C 643.81707 429.86027 642.76991 429.20944 641.3347 428.95874 C 643.12529 426.62452 644.95413 424.29742 647.2559 421.87513 C 649.86387 419.13061 653.11491 416.2273 656.0159 413.43537 C 658.9169 410.64343 661.46282 407.96559 663.68939 405.01152 C 665.91596 402.05745 667.80442 398.8516 669.44722 395.58791 C 671.09001 392.32422 672.48829 389.00207 673.58215 386.04864 C 674.12908 384.57192 674.60173 383.18282 674.89854 382.03515 C 675.04694 381.46131 675.15262 380.94969 675.19709 380.49395 C 675.24159 380.03821 675.26209 379.63937 675.05107 379.20503 C 674.8401 378.77069 674.26353 378.50157 673.84384 378.52768 C 673.42415 378.55378 673.07796 378.70778 672.70095 378.90792 C 671.94693 379.30821 671.08982 379.95535 670.14625 380.70142 C 668.25913 382.19357 666.0441 384.10461 664.00963 385.81443 C 662.67898 386.93274 661.42919 387.96048 660.19638 388.9684 C 661.40343 385.8273 662.31656 382.95835 662.97445 380.25756 C 663.80998 376.82745 664.26769 373.64585 663.99011 371.07829 C 663.71253 368.51075 662.66687 366.58719 661.11517 365.486 C 660.33933 364.9354 659.44846 364.60738 658.36746 364.48046 C 657.28646 364.35353 656.01516 364.42716 654.47686 364.68359 C 651.40025 365.19636 647.12571 366.42122 643.32193 367.91636 C 642.37959 368.28676 641.46969 368.67293 640.58362 369.07082 C 640.8282 368.82782 641.06399 368.58379 641.27976 368.33781 C 642.43566 367.02006 643.1339 365.72182 643.27205 364.58817 C 643.34115 364.02135 643.26505 363.40993 642.81663 362.97468 C 642.59282 362.75705 642.31375 362.63379 642.01205 362.58359 L 642.01205 362.58432 C 641.71035 362.53412 641.38529 362.55752 641.07229 362.63492 C 639.82026 362.94442 638.3412 363.95535 636.47253 365.28504 C 634.60385 366.61472 632.42767 368.27345 630.16386 369.86889 C 626.19874 372.66335 621.91787 375.31517 617.707 378.11057 C 617.6953 377.81146 617.68628 377.68997 617.67158 377.19322 C 617.63838 376.06664 617.59563 374.29948 617.63833 372.63323 C 617.68103 370.96699 617.83039 369.27177 617.32821 367.50215 C 616.82603 365.73253 615.70471 364.0159 614.15978 362.70504 C 612.61484 361.39418 610.54778 360.4865 607.24821 360.48649 z M 607.24821 361.99805 C 610.28547 361.99805 611.8642 362.7376 613.18387 363.85733 C 614.50355 364.97707 615.46593 366.47197 615.8752 367.91419 C 616.28447 369.35642 616.17301 370.87499 616.12893 372.59419 C 616.08483 374.31339 616.12864 376.10335 616.16218 377.23804 C 616.19158 378.23499 616.21243 378.65664 616.23303 379.09009 C 616.12784 379.16129 616.0207 379.229 615.91568 379.30045 C 611.14076 382.54914 606.57278 386.03108 603.55062 388.37924 C 602.17101 389.45117 601.1743 390.24257 600.28966 390.95201 C 600.50163 389.53471 600.76036 388.09436 601.22653 386.47081 C 601.83974 384.33518 602.8217 381.84836 604.11303 379.07202 C 604.75869 377.68384 605.4893 376.21087 606.04315 374.89443 C 606.59699 373.578 607.04468 372.49737 606.88894 371.45925 C 606.81104 370.9402 606.44984 370.44161 605.99617 370.22238 C 605.5425 370.00314 605.06691 369.97992 604.54677 370.00624 C 603.5065 370.05884 602.22611 370.36845 600.67569 370.72624 C 597.57486 371.44182 593.34309 372.40031 589.05087 373.75805 C 584.75866 375.1158 580.42966 376.86492 576.50582 378.8378 C 572.58198 380.81069 569.08727 382.99619 566.2639 384.77708 C 563.44053 386.55798 561.26369 387.94494 559.8439 388.64454 C 558.42411 389.34414 557.82662 389.38314 557.15836 389.30888 C 556.89487 389.27958 556.79126 389.22599 556.73619 389.21129 C 556.74969 389.16809 556.73921 389.16979 556.79691 389.07033 C 557.21866 388.33619 559.12779 386.47009 562.0798 384.12141 C 565.0318 381.77274 569.05828 378.82762 572.90221 376.2578 C 576.74615 373.68798 580.41629 371.48657 584.13304 369.43371 C 587.84979 367.38086 591.58226 365.4952 595.6581 364.15082 C 599.73395 362.80644 604.21095 361.99804 607.24821 361.99805 z M 641.76193 364.05829 C 641.73273 364.02989 641.80855 364.10339 641.77205 364.40456 C 641.69865 365.00699 641.15688 366.18326 640.14265 367.33949 C 638.59082 369.10861 635.87672 370.98463 632.98025 372.89997 L 632.97952 372.9007 A 0.75590497 0.75590497 0 0 0 632.97952 372.90142 C 632.09042 373.48934 631.18583 374.08039 630.29037 374.67395 C 626.4771 377.20161 622.89901 379.77518 619.36459 382.58961 C 615.83018 385.40405 612.33888 388.45996 608.89134 391.82021 C 605.69688 394.9338 602.55105 398.30479 599.41279 401.68261 C 599.31399 399.79714 599.3216 397.53301 599.17063 395.70502 C 599.11983 395.08916 599.04697 394.52133 598.95014 393.98888 C 600.30523 392.87378 601.73355 391.70558 604.47954 389.57201 C 607.4904 387.23263 612.03614 383.76944 616.76652 380.55105 C 621.4969 377.33266 626.4486 374.33637 631.03567 371.10359 C 633.3292 369.48719 635.5133 367.82459 637.35012 366.51757 C 639.18694 365.21055 640.75718 364.26963 641.43663 364.10167 C 641.77561 364.01785 641.79085 364.08621 641.76193 364.05829 z M 657.44939 365.92118 C 657.74582 365.92525 658.01626 365.94584 658.2706 365.97901 C 658.26586 366.02547 658.25614 366.06871 658.25614 366.11781 C 658.25614 366.56364 657.80019 367.08393 657.0865 367.45299 C 656.0131 368.00808 655.81492 368.00975 654.68072 367.46889 C 654.07245 367.17883 653.58624 366.74093 653.48578 366.42937 C 653.90117 366.34382 654.34929 366.23823 654.72481 366.17564 C 655.81721 365.99357 656.70538 365.911 657.44939 365.92118 z M 658.99927 366.12721 C 659.47049 366.2615 659.87391 366.45839 660.24047 366.71853 C 660.64514 367.00571 660.9965 367.4075 661.31614 367.86576 C 660.3874 367.76021 659.01141 366.81425 658.99927 366.12721 z M 652.55614 366.62022 C 652.3839 366.88517 652.07728 367.19325 651.71397 367.4313 C 650.89035 367.97096 650.52847 368.00858 649.55976 367.65829 C 649.39827 367.5999 649.28024 367.57512 649.13759 367.52962 C 650.33168 367.17538 651.48302 366.86761 652.55614 366.62022 z M 653.34988 367.67853 C 653.64702 367.68047 653.90601 367.82493 654.34674 368.11371 C 655.12192 368.62162 655.29518 369.02699 655.29518 370.33299 C 655.29518 371.68579 655.15079 371.99626 654.35253 372.35997 C 653.10809 372.92698 652.66021 372.90233 651.67638 372.21323 C 651.06185 371.78279 650.85373 371.26659 650.85373 370.17178 C 650.85373 368.86639 650.99256 368.63976 652.12602 368.09925 C 652.71745 367.81721 653.05274 367.67659 653.34988 367.67853 z M 658.90168 367.67853 C 659.19882 367.68047 659.45781 367.82493 659.89855 368.11371 C 660.67372 368.62162 660.84698 369.02699 660.84698 370.33299 C 660.84698 371.68579 660.70259 371.99626 659.90433 372.35997 C 658.65989 372.92698 658.21201 372.90233 657.22819 372.21323 C 656.61365 371.78279 656.40554 371.26659 656.40554 370.17178 C 656.40554 368.86639 656.54436 368.63976 657.67783 368.09925 C 658.26925 367.81721 658.60454 367.67659 658.90168 367.67853 z M 648.26723 367.80287 C 648.41892 367.87519 648.58437 367.97574 648.79494 368.11371 C 649.57011 368.62162 649.74337 369.02699 649.74337 370.33299 C 649.74337 371.68579 649.59899 371.99626 648.80072 372.35997 C 647.55628 372.92698 647.10841 372.90233 646.12458 372.21323 C 645.51005 371.78279 645.30193 371.26659 645.30193 370.17178 C 645.30193 369.37946 645.35666 368.98638 645.65036 368.67757 C 646.52424 368.36516 647.39038 368.07593 648.26723 367.80287 z M 644.21976 369.19877 C 644.19444 369.45336 644.19157 369.77158 644.19157 370.19347 C 644.19157 371.82336 644.10256 371.9962 643.0306 372.44022 C 642.05586 372.84397 641.7142 372.83433 640.90241 372.38022 C 640.40464 372.10176 639.95719 371.54268 639.84555 371.09202 C 641.14247 370.47664 642.46749 369.87778 643.87494 369.32455 C 643.98706 369.28048 644.10672 369.24237 644.21976 369.19877 z M 662.01156 369.23636 C 662.2258 369.82675 662.40336 370.47126 662.4865 371.24022 C 662.5179 371.5307 662.50887 371.86994 662.51903 372.18648 C 662.5167 372.18557 662.51486 372.18376 662.51252 372.18287 C 662.03209 371.99851 661.82849 370.2608 662.01156 369.23636 z M 638.5653 371.70214 C 638.34271 372.07966 637.58213 372.44695 636.83687 372.59925 C 637.41363 372.30112 637.97762 371.99305 638.5653 371.70214 z M 639.13928 372.52479 C 639.46478 372.5227 639.79748 372.65774 640.36458 372.92817 C 641.45391 373.44763 641.60073 373.68912 641.60073 374.96166 C 641.60073 376.0879 641.40001 376.53686 640.68844 377.0031 C 639.57897 377.73004 639.12226 377.73255 637.80699 377.01901 C 636.96213 376.56066 636.78916 376.21912 636.78916 375.00792 C 636.78916 373.74452 636.94596 373.46783 637.9588 372.94407 C 638.4955 372.66652 638.81378 372.52689 639.13928 372.52479 z M 644.69108 372.52479 C 645.01658 372.5227 645.34929 372.65774 645.91639 372.92817 C 647.00572 373.44763 647.15253 373.68912 647.15253 374.96166 C 647.15253 376.0879 646.95182 376.53686 646.24024 377.0031 C 645.13078 377.73004 644.67406 377.73255 643.3588 377.01901 C 642.51393 376.56066 642.34097 376.21912 642.34097 375.00792 C 642.34097 373.74452 642.49777 373.46783 643.5106 372.94407 C 644.0473 372.66652 644.36559 372.52689 644.69108 372.52479 z M 650.24289 372.52479 C 650.56839 372.5227 650.90109 372.65774 651.46819 372.92817 C 652.55752 373.44763 652.70433 373.68912 652.70433 374.96166 C 652.70433 376.0879 652.50362 376.53686 651.79205 377.0031 C 650.68258 377.73004 650.22587 377.73255 648.9106 377.01901 C 648.06573 376.56066 647.89277 376.21912 647.89277 375.00792 C 647.89277 373.74452 648.04957 373.46783 649.06241 372.94407 C 649.59911 372.66652 649.91739 372.52689 650.24289 372.52479 z M 655.79469 372.52479 C 656.12019 372.5227 656.4529 372.65774 657.01999 372.92817 C 658.10932 373.44763 658.25614 373.68912 658.25614 374.96166 C 658.25614 376.0879 658.05543 376.53686 657.34385 377.0031 C 656.23439 377.73004 655.77767 377.73255 654.46241 377.01901 C 653.61754 376.56066 653.44457 376.21912 653.44457 375.00792 C 653.44457 373.74452 653.60137 373.46783 654.61421 372.94407 C 655.15091 372.66652 655.4692 372.52689 655.79469 372.52479 z M 661.25903 372.5566 C 661.57095 372.52557 661.85542 372.59113 662.19373 372.74528 C 662.32616 372.80562 662.44054 372.84932 662.54361 372.88262 C 662.52399 374.25076 662.34751 375.80108 662.03108 377.47732 C 662.0202 377.47992 662.01182 377.47948 662.00071 377.48238 C 661.61736 377.58263 660.78459 377.39627 660.15011 377.06816 C 659.15422 376.55317 658.99638 376.27178 658.99638 375.01009 C 658.99638 373.74624 659.15348 373.46717 660.15807 372.94768 C 660.60772 372.71516 660.9471 372.58763 661.25903 372.5566 z M 635.4988 373.29395 C 635.50515 373.29646 635.50896 373.29942 635.51543 373.3019 C 635.93584 373.46323 636.06118 373.93167 635.97808 375.0325 C 635.88904 376.21196 635.64464 376.67486 634.86193 377.14768 C 633.93366 377.70845 633.76547 377.70798 632.57687 377.14118 C 631.87758 376.80771 631.39411 376.33923 631.21928 375.87178 C 632.08258 375.30039 632.9581 374.73166 633.82458 374.16286 C 634.37754 373.86798 634.94467 373.58639 635.4988 373.29395 z M 631.09133 377.33274 C 631.38935 377.33926 631.65673 377.48835 632.10989 377.78527 C 632.90737 378.3078 633.08764 378.70929 633.08579 379.95684 C 633.08382 381.24336 632.91842 381.58069 632.05061 382.07419 C 631.12201 382.60226 630.8996 382.60472 629.83278 382.09949 C 628.76695 381.59472 628.64651 381.37549 628.64651 379.93371 C 628.64651 378.47758 628.76157 378.27455 629.88916 377.73684 C 630.46465 377.46241 630.79331 377.32623 631.09133 377.33274 z M 636.41904 377.39708 C 636.72339 377.39708 637.02774 377.52658 637.5294 377.786 C 638.49805 378.28691 638.63981 378.55962 638.63759 379.92358 C 638.63561 381.24629 638.47577 381.57753 637.60241 382.07419 C 636.67381 382.60226 636.45141 382.60472 635.38458 382.09949 C 634.32138 381.59596 634.19832 381.37323 634.19832 379.94889 C 634.19832 378.5578 634.33655 378.2887 635.30868 377.786 C 635.81034 377.52658 636.11469 377.39708 636.41904 377.39708 z M 641.97085 377.39708 C 642.27519 377.39708 642.57954 377.52658 643.08121 377.786 C 644.04986 378.28691 644.19162 378.55962 644.1894 379.92358 C 644.18742 381.24629 644.02758 381.57753 643.15422 382.07419 C 642.22562 382.60226 642.00321 382.60472 640.93639 382.09949 C 639.87318 381.59596 639.75012 381.37323 639.75012 379.94889 C 639.75012 378.5578 639.88835 378.2887 640.86048 377.786 C 641.36215 377.52658 641.6665 377.39708 641.97085 377.39708 z M 647.52265 377.39708 C 647.827 377.39708 648.13135 377.52658 648.63301 377.786 C 649.60166 378.28691 649.74342 378.55962 649.7412 379.92358 C 649.73922 381.24629 649.57938 381.57753 648.70602 382.07419 C 647.77742 382.60226 647.55502 382.60472 646.48819 382.09949 C 645.42498 381.59596 645.30193 381.37323 645.30193 379.94889 C 645.30193 378.5578 645.44016 378.2887 646.41229 377.786 C 646.91395 377.52658 647.2183 377.39708 647.52265 377.39708 z M 653.07445 377.39708 C 653.3788 377.39708 653.68315 377.52658 654.18482 377.786 C 655.15346 378.28691 655.29523 378.55962 655.29301 379.92358 C 655.29103 381.24629 655.13119 381.57753 654.25783 382.07419 C 653.32922 382.60226 653.10682 382.60472 652.04 382.09949 C 650.97679 381.59596 650.85373 381.37323 650.85373 379.94889 C 650.85373 378.5578 650.99196 378.2887 651.96409 377.786 C 652.46576 377.52658 652.77011 377.39708 653.07445 377.39708 z M 658.62626 377.39708 C 658.93061 377.39708 659.23496 377.52658 659.73662 377.786 C 660.70527 378.28691 660.84703 378.55962 660.84481 379.92358 C 660.84283 381.24629 660.68299 381.57753 659.80963 382.07419 C 658.88103 382.60226 658.65862 382.60472 657.5918 382.09949 C 656.52859 381.59596 656.40554 381.37323 656.40554 379.94889 C 656.40554 378.5578 656.54377 378.2887 657.5159 377.786 C 658.01756 377.52658 658.32191 377.39708 658.62626 377.39708 z M 627.3829 378.5219 C 627.38695 378.78416 627.40796 379.11353 627.44146 379.54407 C 627.58388 381.37482 627.53021 381.52155 626.51326 382.08358 C 625.54386 382.61934 625.32417 382.6236 624.35688 382.12262 C 623.97291 381.92376 623.60026 381.67954 623.33905 381.47202 C 624.66511 380.47285 626.01824 379.48063 627.3829 378.5219 z M 673.69348 380.1325 C 673.70048 380.2182 673.70778 380.2012 673.69348 380.34792 C 673.66128 380.67748 673.57183 381.13102 673.43541 381.65852 C 673.16256 382.71352 672.70199 384.0701 672.16384 385.5231 C 671.08755 388.4291 669.70785 391.70502 668.09541 394.9084 C 666.48297 398.11179 664.63931 401.23943 662.48216 404.1014 C 660.32501 406.96337 657.8386 409.58231 654.96698 412.34598 C 652.09535 415.10965 648.83256 418.02168 646.16 420.83417 C 643.51621 423.61638 641.48804 426.26538 639.4841 428.88645 C 638.30131 428.94655 636.86178 429.18696 635.28266 429.50163 C 638.7059 425.2448 642.10434 421.00092 644.94554 417.09176 C 648.022 412.85888 650.45145 409.01586 652.79903 404.74189 C 655.10942 400.53564 657.33646 395.91586 659.07301 391.77105 A 0.75590497 0.75590497 0 0 0 659.20096 391.73274 C 661.06728 390.21365 662.93722 388.69152 664.98264 386.9725 C 667.02807 385.25347 669.24045 383.34624 671.08601 381.88696 C 672.00879 381.15732 672.84577 380.54342 673.41011 380.24383 C 673.56167 380.16333 673.59831 380.16483 673.69348 380.1325 z M 622.59881 382.14864 C 622.92648 382.15215 623.24877 382.29438 623.79591 382.57732 C 624.87349 383.13455 624.97519 383.33233 624.87302 384.67081 C 624.78264 385.85496 624.53936 386.28363 623.64989 386.8243 C 622.56968 387.48092 622.50687 387.47928 621.33664 386.77226 C 620.30736 386.15039 620.13375 385.83624 620.13375 384.59346 C 620.13375 384.30648 620.14567 384.08598 620.16917 383.88864 C 620.21523 383.85188 620.26045 383.81039 620.30652 383.7737 C 620.99616 383.22454 621.70334 382.71854 622.39784 382.18623 C 622.46267 382.17675 622.53599 382.14797 622.59881 382.14864 z M 628.15061 382.14864 C 628.47828 382.15215 628.80058 382.29438 629.34772 382.57732 C 630.42529 383.13455 630.527 383.33233 630.42483 384.67081 C 630.33444 385.85496 630.09117 386.28363 629.2017 386.8243 C 628.12148 387.48092 628.05867 387.47928 626.88844 386.77226 C 625.85916 386.15039 625.68555 385.83624 625.68555 384.59346 C 625.68555 383.31128 625.83054 383.07163 626.9217 382.55129 C 627.48997 382.2803 627.82294 382.14513 628.15061 382.14864 z M 633.70242 382.14864 C 634.03008 382.15215 634.35238 382.29438 634.89952 382.57732 C 635.9771 383.13455 636.0788 383.33233 635.97663 384.67081 C 635.88624 385.85496 635.64297 386.28363 634.7535 386.8243 C 633.67329 387.48092 633.61048 387.47928 632.44025 386.77226 C 631.41097 386.15039 631.23736 385.83624 631.23736 384.59346 C 631.23736 383.31128 631.38235 383.07163 632.4735 382.55129 C 633.04177 382.2803 633.37475 382.14513 633.70242 382.14864 z M 639.25422 382.14864 C 639.58189 382.15215 639.90418 382.29438 640.45133 382.57732 C 641.5289 383.13455 641.6306 383.33233 641.52844 384.67081 C 641.43805 385.85496 641.19478 386.28363 640.3053 386.8243 C 639.22509 387.48092 639.16228 387.47928 637.99205 386.77226 C 636.96277 386.15039 636.78916 385.83624 636.78916 384.59346 C 636.78916 383.31128 636.93415 383.07163 638.02531 382.55129 C 638.59357 382.2803 638.92655 382.14513 639.25422 382.14864 z M 644.80602 382.14864 C 645.13369 382.15215 645.45599 382.29438 646.00313 382.57732 C 647.0807 383.13455 647.18241 383.33233 647.08024 384.67081 C 646.98985 385.85496 646.74658 386.28363 645.85711 386.8243 C 644.7769 387.48092 644.71408 387.47928 643.54386 386.77226 C 642.51457 386.15039 642.34097 385.83624 642.34097 384.59346 C 642.34097 383.31128 642.48595 383.07163 643.57711 382.55129 C 644.14538 382.2803 644.47836 382.14513 644.80602 382.14864 z M 650.35783 382.14864 C 650.6855 382.15215 651.00779 382.29438 651.55494 382.57732 C 652.63251 383.13455 652.73421 383.33233 652.63204 384.67081 C 652.54166 385.85496 652.29839 386.28363 651.40891 386.8243 C 650.3287 387.48092 650.26589 387.47928 649.09566 386.77226 C 648.06638 386.15039 647.89277 385.83624 647.89277 384.59346 C 647.89277 383.31128 648.03776 383.07163 649.12891 382.55129 C 649.69718 382.2803 650.03016 382.14513 650.35783 382.14864 z M 655.90963 382.14864 C 656.2373 382.15215 656.5596 382.29438 657.10674 382.57732 C 658.18431 383.13455 658.28602 383.33233 658.18385 384.67081 C 658.09346 385.85496 657.85019 386.28363 656.96072 386.8243 C 655.88051 387.48092 655.81769 387.47928 654.64747 386.77226 C 653.61818 386.15039 653.44457 385.83624 653.44457 384.59346 C 653.44457 383.31128 653.58956 383.07163 654.68072 382.55129 C 655.24899 382.2803 655.58197 382.14513 655.90963 382.14864 z M 660.90047 382.15804 C 660.51821 383.49603 660.05985 384.89613 659.54578 386.34575 C 659.18308 386.20061 658.99638 385.62335 658.99638 384.639 C 658.99638 383.29781 659.12895 383.07757 660.26288 382.53684 C 660.51026 382.41887 660.7154 382.29231 660.90047 382.15804 z M 619.42315 384.5125 C 619.41511 384.61133 619.39351 384.6964 619.39351 384.80671 C 619.39351 385.78946 619.15504 386.19188 618.22242 386.78238 C 617.30088 387.36586 616.90961 387.43604 616.38845 387.11057 C 616.37412 387.10162 616.35886 387.0973 616.34435 387.08888 C 617.3674 386.21075 618.39259 385.34677 619.42315 384.5125 z M 588.24557 386.96021 C 589.51387 386.92921 590.65572 387.08714 591.64677 387.41418 C 593.62887 388.06826 595.11361 389.42872 596.08027 390.81828 C 596.68482 391.68733 597.06114 392.56078 597.31713 393.63322 A 0.75590497 0.75590497 0 0 0 597.44942 394.18551 C 597.53972 394.68051 597.61134 395.21713 597.66195 395.83008 C 597.85114 398.12131 597.75975 401.32908 598.05665 403.61345 C 598.18845 404.62732 598.41445 405.4263 598.68051 406.13417 C 597.89639 405.51123 597.05075 404.83467 596.29135 404.21128 C 594.8476 403.02611 593.69639 401.99371 592.12894 401.4549 C 590.60448 400.93086 588.89908 400.93732 587.24943 400.93803 C 587.15163 400.88753 587.06862 400.82051 586.96461 400.77755 C 584.58299 399.79382 580.83829 400.29168 576.75811 401.12526 C 572.67794 401.95884 568.27768 403.23452 563.84799 405.32815 C 559.41829 407.42179 555.00118 410.30481 552.33957 411.69899 C 551.00877 412.39608 550.10356 412.72892 549.52535 412.85562 C 549.09644 412.94962 548.99374 412.89768 548.86318 412.86718 C 548.92628 412.73602 548.96995 412.59864 549.28101 412.22092 C 550.12465 411.1965 551.93998 409.45877 554.59571 407.17008 C 557.25145 404.8814 560.75971 402.02225 564.17763 399.38309 C 567.59556 396.74393 570.91566 394.32929 574.28727 392.26767 C 577.65888 390.20604 581.08738 388.4996 584.08389 387.64045 C 585.58215 387.21088 586.97727 386.99122 588.24557 386.96021 z M 619.74628 387.01515 C 620.04624 387.00565 620.34869 387.13765 620.86387 387.40406 C 621.84519 387.91153 621.98435 388.17948 621.98435 389.55972 C 621.98435 390.90705 621.82824 391.22829 620.90941 391.77105 C 619.66604 392.50552 619.86206 392.50899 618.56146 391.72406 C 617.72175 391.21729 617.544 390.84953 617.54363 389.61683 C 617.54307 388.35298 617.71206 388.02419 618.64315 387.47418 C 619.14885 387.17546 619.44632 387.02464 619.74628 387.01515 z M 625.29808 387.01515 C 625.59804 387.00565 625.90049 387.13765 626.41567 387.40406 C 627.397 387.91153 627.53615 388.17948 627.53615 389.55972 C 627.53615 390.90705 627.38004 391.22829 626.46121 391.77105 C 625.21785 392.50552 625.41387 392.50899 624.11326 391.72406 C 623.27355 391.21729 623.0958 390.84953 623.09543 389.61683 C 623.09487 388.35298 623.26387 388.02419 624.19495 387.47418 C 624.70065 387.17546 624.99812 387.02464 625.29808 387.01515 z M 630.84989 387.01515 C 631.14985 387.00565 631.4523 387.13765 631.96748 387.40406 C 632.9488 387.91153 633.08796 388.17948 633.08796 389.55972 C 633.08796 390.90705 632.93185 391.22829 632.01302 391.77105 C 630.76965 392.50552 630.96567 392.50899 629.66507 391.72406 C 628.82536 391.21729 628.64761 390.84953 628.64724 389.61683 C 628.64668 388.35298 628.81567 388.02419 629.74676 387.47418 C 630.25246 387.17546 630.54993 387.02464 630.84989 387.01515 z M 636.40169 387.01515 C 636.70165 387.00565 637.0041 387.13765 637.51928 387.40406 C 638.50061 387.91153 638.63976 388.17948 638.63976 389.55972 C 638.63976 390.90705 638.48365 391.22829 637.56482 391.77105 C 636.32146 392.50552 636.51748 392.50899 635.21687 391.72406 C 634.37716 391.21729 634.19941 390.84953 634.19904 389.61683 C 634.19848 388.35298 634.36748 388.02419 635.29856 387.47418 C 635.80426 387.17546 636.10173 387.02464 636.40169 387.01515 z M 641.9535 387.01515 C 642.25346 387.00565 642.5559 387.13765 643.07109 387.40406 C 644.05241 387.91153 644.19157 388.17948 644.19157 389.55972 C 644.19157 390.90705 644.03546 391.22829 643.11663 391.77105 C 641.87326 392.50552 642.06928 392.50899 640.76868 391.72406 C 639.92897 391.21729 639.75122 390.84953 639.75085 389.61683 C 639.75028 388.35298 639.91928 388.02419 640.85036 387.47418 C 641.35607 387.17546 641.65354 387.02464 641.9535 387.01515 z M 647.5053 387.01515 C 647.80526 387.00565 648.10771 387.13765 648.62289 387.40406 C 649.60422 387.91153 649.74337 388.17948 649.74337 389.55972 C 649.74337 390.90705 649.58726 391.22829 648.66843 391.77105 C 647.42507 392.50552 647.62108 392.50899 646.32048 391.72406 C 645.48077 391.21729 645.30302 390.84953 645.30265 389.61683 C 645.30209 388.35298 645.47109 388.02419 646.40217 387.47418 C 646.90787 387.17546 647.20534 387.02464 647.5053 387.01515 z M 653.0571 387.01515 C 653.35706 387.00565 653.65951 387.13765 654.17469 387.40406 C 655.15602 387.91153 655.29518 388.17948 655.29518 389.55972 C 655.29518 390.90705 655.13906 391.22829 654.22024 391.77105 C 652.97687 392.50552 653.17289 392.50899 651.87229 391.72406 C 651.03258 391.21729 650.85483 390.84953 650.85446 389.61683 C 650.85389 388.35298 651.02289 388.02419 651.95397 387.47418 C 652.45968 387.17546 652.75715 387.02464 653.0571 387.01515 z M 658.90457 387.06575 C 659.04439 387.06034 659.169 387.0722 659.27686 387.09756 C 658.81941 388.34838 658.33002 389.62922 657.7653 390.98454 C 657.67513 391.20094 657.55247 391.44345 657.45951 391.66261 C 657.42917 391.64804 657.4111 391.6348 657.37855 391.61996 C 656.55678 391.24554 656.40554 390.939 656.40554 389.65009 C 656.40554 388.36783 656.57282 388.02537 657.45084 387.50671 C 657.8874 387.24883 658.45743 387.08306 658.90457 387.06575 z M 615.73279 387.60069 C 615.75282 387.61337 615.76623 387.62842 615.78773 387.64045 C 616.24221 387.89479 616.43255 388.46338 616.43255 389.5684 C 616.43255 390.90681 616.27492 391.22892 615.35471 391.77249 C 614.33396 392.37547 614.21761 392.37451 613.14411 391.75948 C 612.70598 391.50847 612.31087 391.18353 612.08941 390.91731 C 613.29993 389.78733 614.51143 388.6615 615.73279 387.60069 z M 617.02821 391.76165 C 617.34911 391.75659 617.66678 391.9021 618.23254 392.19466 C 619.33187 392.76314 619.42446 392.94599 619.32122 394.35032 C 619.22833 395.61382 619.01221 395.99475 618.09809 396.50526 C 617.04434 397.09375 616.9264 397.08812 615.78483 396.39683 C 614.77103 395.7829 614.58194 395.45013 614.58194 394.2802 C 614.58194 393.08867 614.75528 392.79911 615.80652 392.23298 C 616.38326 391.92238 616.70731 391.76671 617.02821 391.76165 z M 622.58001 391.76165 C 622.90091 391.75659 623.21859 391.9021 623.78435 392.19466 C 624.88368 392.76314 624.97627 392.94599 624.87302 394.35032 C 624.78013 395.61382 624.56401 395.99475 623.64989 396.50526 C 622.59614 397.09375 622.4782 397.08812 621.33664 396.39683 C 620.32284 395.7829 620.13375 395.45013 620.13375 394.2802 C 620.13375 393.08867 620.30708 392.79911 621.35833 392.23298 C 621.93506 391.92238 622.25911 391.76671 622.58001 391.76165 z M 628.13182 391.76165 C 628.45271 391.75659 628.77039 391.9021 629.33615 392.19466 C 630.43548 392.76314 630.52807 392.94599 630.42483 394.35032 C 630.33193 395.61382 630.11582 395.99475 629.2017 396.50526 C 628.14795 397.09375 628.03001 397.08812 626.88844 396.39683 C 625.87464 395.7829 625.68555 395.45013 625.68555 394.2802 C 625.68555 393.08867 625.85888 392.79911 626.91013 392.23298 C 627.48686 391.92238 627.81092 391.76671 628.13182 391.76165 z M 633.68362 391.76165 C 634.00452 391.75659 634.3222 391.9021 634.88796 392.19466 C 635.98729 392.76314 636.07988 392.94599 635.97663 394.35032 C 635.88374 395.61382 635.66762 395.99475 634.7535 396.50526 C 633.69975 397.09375 633.58181 397.08812 632.44025 396.39683 C 631.42644 395.7829 631.23736 395.45013 631.23736 394.2802 C 631.23736 393.08867 631.41069 392.79911 632.46193 392.23298 C 633.03867 391.92238 633.36272 391.76671 633.68362 391.76165 z M 639.25422 391.77177 C 639.58189 391.77528 639.90418 391.91751 640.45133 392.20045 C 641.53822 392.7625 641.63148 392.94866 641.52844 394.35032 C 641.43554 395.61382 641.21943 395.99475 640.3053 396.50526 C 639.25156 397.09375 639.13361 397.08812 637.99205 396.39683 C 636.96305 395.7737 636.78916 395.45902 636.78916 394.21659 C 636.78916 392.93441 636.93415 392.69476 638.02531 392.17442 C 638.59357 391.90343 638.92655 391.76826 639.25422 391.77177 z M 644.80602 391.77177 C 645.13369 391.77528 645.45599 391.91751 646.00313 392.20045 C 647.09003 392.7625 647.18329 392.94866 647.08024 394.35032 C 646.98779 395.60781 646.76591 396.00217 645.85277 396.53346 C 644.77745 397.15909 644.6962 397.15521 643.53952 396.42285 C 642.52102 395.77799 642.34097 395.44574 642.34097 394.2137 C 642.34097 392.9341 642.48644 392.69453 643.57711 392.17442 C 644.14538 391.90343 644.47836 391.76826 644.80602 391.77177 z M 650.35783 391.77177 C 650.6855 391.77528 651.00779 391.91751 651.55494 392.20045 C 652.64183 392.7625 652.73509 392.94866 652.63204 394.35032 C 652.53959 395.60781 652.31772 396.00217 651.40458 396.53346 C 650.32925 397.15909 650.248 397.15521 649.09132 396.42285 C 648.07282 395.77799 647.89277 395.44574 647.89277 394.2137 C 647.89277 392.9341 648.03825 392.69453 649.12891 392.17442 C 649.69718 391.90343 650.03016 391.76826 650.35783 391.77177 z M 611.55664 391.79563 C 611.87229 391.81995 612.20752 391.94961 612.68002 392.19394 C 613.68761 392.71499 613.8417 392.99092 613.8417 394.27153 C 613.8417 395.5264 613.66944 395.85248 612.69231 396.44671 C 611.56076 397.13485 611.5229 397.13425 610.28652 396.40478 C 609.24323 395.78922 609.03014 395.44656 609.03014 394.38285 C 609.03014 394.18494 609.01951 394.01261 609.0005 393.86382 C 609.31621 393.55041 609.62906 393.21063 609.94532 392.90237 C 610.32696 392.53039 610.71487 392.19986 611.09761 391.83539 C 611.25462 391.79863 611.40365 391.78384 611.55664 391.79563 z M 655.72891 391.80502 C 656.05613 391.78381 656.37696 391.87078 656.82554 392.05659 C 656.96841 392.11577 657.09582 392.15796 657.21879 392.19683 C 656.5774 393.68882 655.89841 395.21333 655.1571 396.77201 C 654.97736 396.63307 654.7894 396.48907 654.55494 396.35056 C 653.62175 395.79932 653.44457 395.46345 653.44457 394.24478 C 653.44457 392.9973 653.6053 392.71206 654.59325 392.20117 C 655.06837 391.95548 655.40169 391.82624 655.72891 391.80502 z M 608.29496 394.58165 C 608.29441 394.60614 608.2899 394.62939 608.2899 394.65394 C 608.2899 395.48278 608.00899 395.91862 607.1311 396.45249 C 606.72262 396.70091 606.29178 396.87686 605.96147 396.9549 C 606.73778 396.14833 607.51634 395.36419 608.29496 394.58165 z M 608.64267 396.63828 C 608.94263 396.62878 609.24508 396.76078 609.76026 397.02719 C 610.75295 397.54053 610.88074 397.79448 610.88074 399.25297 C 610.88074 400.70195 610.74941 400.96737 609.78845 401.4643 C 609.18786 401.77487 608.64656 402.01352 608.58556 401.9949 C 608.52456 401.97629 608.01729 401.68482 607.45785 401.34719 C 606.61814 400.84042 606.44039 400.47266 606.44002 399.23996 C 606.43946 397.97611 606.60846 397.64731 607.53954 397.09731 C 608.04524 396.79859 608.34271 396.64777 608.64267 396.63828 z M 614.19447 396.63828 C 614.49443 396.62878 614.79688 396.76078 615.31206 397.02719 C 616.29339 397.53466 616.43255 397.8026 616.43255 399.18285 C 616.43255 400.53018 616.27643 400.85141 615.35761 401.39418 C 614.11424 402.12865 614.31026 402.13212 613.00966 401.34719 C 612.16994 400.84042 611.99219 400.47266 611.99182 399.23996 C 611.99126 397.97611 612.16026 397.64731 613.09134 397.09731 C 613.59704 396.79859 613.89451 396.64777 614.19447 396.63828 z M 619.74628 396.63828 C 620.04624 396.62878 620.34869 396.76078 620.86387 397.02719 C 621.84519 397.53466 621.98435 397.8026 621.98435 399.18285 C 621.98435 400.53018 621.82824 400.85141 620.90941 401.39418 C 619.66604 402.12865 619.86206 402.13212 618.56146 401.34719 C 617.72175 400.84042 617.544 400.47266 617.54363 399.23996 C 617.54307 397.97611 617.71206 397.64731 618.64315 397.09731 C 619.14885 396.79859 619.44632 396.64777 619.74628 396.63828 z M 625.29808 396.63828 C 625.59804 396.62878 625.90049 396.76078 626.41567 397.02719 C 627.397 397.53466 627.53615 397.8026 627.53615 399.18285 C 627.53615 400.53018 627.38004 400.85141 626.46121 401.39418 C 625.21785 402.12865 625.41387 402.13212 624.11326 401.34719 C 623.27355 400.84042 623.0958 400.47266 623.09543 399.23996 C 623.09487 397.97611 623.26387 397.64731 624.19495 397.09731 C 624.70065 396.79859 624.99812 396.64777 625.29808 396.63828 z M 630.84989 396.63828 C 631.14985 396.62878 631.4523 396.76078 631.96748 397.02719 C 632.9488 397.53466 633.08796 397.8026 633.08796 399.18285 C 633.08796 400.53018 632.93185 400.85141 632.01302 401.39418 C 630.76965 402.12865 630.96567 402.13212 629.66507 401.34719 C 628.82536 400.84042 628.64761 400.47266 628.64724 399.23996 C 628.64668 397.97611 628.81567 397.64731 629.74676 397.09731 C 630.25246 396.79859 630.54993 396.64777 630.84989 396.63828 z M 636.40169 396.63828 C 636.70165 396.62878 637.0041 396.76078 637.51928 397.02719 C 638.50061 397.53466 638.63976 397.8026 638.63976 399.18285 C 638.63976 400.53018 638.48365 400.85141 637.56482 401.39418 C 636.32146 402.12865 636.51748 402.13212 635.21687 401.34719 C 634.37716 400.84042 634.19941 400.47266 634.19904 399.23996 C 634.19848 397.97611 634.36748 397.64731 635.29856 397.09731 C 635.80426 396.79859 636.10173 396.64777 636.40169 396.63828 z M 641.9535 396.63828 C 642.25346 396.62878 642.5559 396.76078 643.07109 397.02719 C 644.05241 397.53466 644.19157 397.8026 644.19157 399.18285 C 644.19157 400.53018 644.03546 400.85141 643.11663 401.39418 C 641.87326 402.12865 642.06928 402.13212 640.76868 401.34719 C 639.92897 400.84042 639.75122 400.47266 639.75085 399.23996 C 639.75028 397.97611 639.91928 397.64731 640.85036 397.09731 C 641.35607 396.79859 641.65354 396.64777 641.9535 396.63828 z M 647.5053 396.63828 C 647.80526 396.62878 648.10771 396.76078 648.62289 397.02719 C 649.60422 397.53466 649.74337 397.8026 649.74337 399.18285 C 649.74337 400.53018 649.58726 400.85141 648.66843 401.39418 C 647.42507 402.12865 647.62108 402.13212 646.32048 401.34719 C 645.48077 400.84042 645.30302 400.47266 645.30265 399.23996 C 645.30209 397.97611 645.47109 397.64731 646.40217 397.09731 C 646.90787 396.79859 647.20534 396.64777 647.5053 396.63828 z M 653.05421 396.639 C 653.35314 396.62817 653.65207 396.75653 654.1559 397.01707 C 654.45412 397.17129 654.68986 397.28704 654.8853 397.3749 C 654.16475 398.87161 653.40842 400.35914 652.63638 401.82936 C 652.44823 401.67248 652.22227 401.50949 651.96626 401.36381 C 651.0238 400.82752 650.85775 400.51007 650.8559 399.23996 C 650.85392 397.97525 651.02226 397.64768 651.95397 397.09731 C 652.45678 396.8003 652.75529 396.64983 653.05421 396.639 z M 605.20098 397.72767 C 605.19737 398.01277 605.20822 398.35503 605.24797 398.83442 C 605.41004 400.7887 605.37783 400.87461 604.26267 401.45128 C 603.21098 401.99514 603.03202 401.99601 602.21834 401.46285 C 602.1003 401.38551 601.98235 401.32168 601.86918 401.26984 C 602.97903 400.07934 604.08968 398.89203 605.20098 397.72767 z M 650.4106 401.35948 C 650.74077 401.37404 651.08134 401.56823 651.73711 401.95514 C 651.98019 402.09857 652.19578 402.20282 652.39277 402.28695 C 652.08667 402.86451 651.78447 403.45142 651.4747 404.01538 C 650.97397 404.927 650.4662 405.81068 649.95301 406.68935 C 649.75936 406.50021 649.50314 406.29495 649.19036 406.10164 C 648.07901 405.41479 647.89277 405.09977 647.89277 403.90767 C 647.89277 402.70535 648.06381 402.42386 649.14626 401.84092 C 649.76067 401.51005 650.08043 401.34491 650.4106 401.35948 z M 644.78723 401.38478 C 645.10813 401.37972 645.42581 401.52523 645.99157 401.81779 C 647.09089 402.38627 647.18349 402.56912 647.08024 403.97345 C 646.98779 405.23094 646.76591 405.62531 645.85277 406.15658 C 644.77745 406.78222 644.6962 406.77834 643.53952 406.04598 C 642.53647 405.4109 642.34097 405.06074 642.34097 403.90116 C 642.34097 402.71221 642.51485 402.42194 643.56554 401.8561 C 644.14228 401.54551 644.46633 401.38984 644.78723 401.38478 z M 605.92098 401.3855 C 606.24074 401.37902 606.55553 401.5209 607.10869 401.80695 C 608.15822 402.34968 608.2899 402.59461 608.2899 404.00526 C 608.2899 405.44021 608.17113 405.64974 607.0552 406.18188 C 605.89474 406.73527 605.75036 406.7257 604.64942 406.02863 C 603.67509 405.41174 603.47833 405.05403 603.47833 403.90116 C 603.47833 402.7122 603.65222 402.42194 604.70291 401.8561 C 605.2765 401.54721 605.60122 401.39198 605.92098 401.3855 z M 611.47279 401.3855 C 611.79255 401.37902 612.10734 401.5209 612.6605 401.80695 C 613.71002 402.34968 613.8417 402.59461 613.8417 404.00526 C 613.8417 405.44021 613.72293 405.64974 612.60701 406.18188 C 611.44655 406.73527 611.30216 406.7257 610.20122 406.02863 C 609.2269 405.41174 609.03014 405.05403 609.03014 403.90116 C 609.03014 402.7122 609.20402 402.42194 610.25472 401.8561 C 610.8283 401.54721 611.15303 401.39198 611.47279 401.3855 z M 617.02459 401.3855 C 617.34435 401.37902 617.65914 401.5209 618.2123 401.80695 C 619.26183 402.34968 619.39351 402.59461 619.39351 404.00526 C 619.39351 405.44021 619.27474 405.64974 618.15881 406.18188 C 616.99835 406.73527 616.85397 406.7257 615.75303 406.02863 C 614.7787 405.41174 614.58194 405.05403 614.58194 403.90116 C 614.58194 402.7122 614.75582 402.42194 615.80652 401.8561 C 616.38011 401.54721 616.70483 401.39198 617.02459 401.3855 z M 622.5764 401.3855 C 622.89616 401.37902 623.21095 401.5209 623.76411 401.80695 C 624.81363 402.34968 624.94531 402.59461 624.94531 404.00526 C 624.94531 405.44021 624.82654 405.64974 623.71061 406.18188 C 622.55016 406.73527 622.40577 406.7257 621.30483 406.02863 C 620.33051 405.41174 620.13375 405.05403 620.13375 403.90116 C 620.13375 402.7122 620.30763 402.42194 621.35833 401.8561 C 621.93191 401.54721 622.25664 401.39198 622.5764 401.3855 z M 628.1282 401.3855 C 628.44796 401.37902 628.76275 401.5209 629.31591 401.80695 C 630.36544 402.34968 630.49712 402.59461 630.49712 404.00526 C 630.49712 405.44021 630.37835 405.64974 629.26242 406.18188 C 628.10196 406.73527 627.95758 406.7257 626.85664 406.02863 C 625.88231 405.41174 625.68555 405.05403 625.68555 403.90116 C 625.68555 402.7122 625.85943 402.42194 626.91013 401.8561 C 627.48371 401.54721 627.80844 401.39198 628.1282 401.3855 z M 633.68001 401.3855 C 633.99977 401.37902 634.31456 401.5209 634.86772 401.80695 C 635.91724 402.34968 636.04892 402.59461 636.04892 404.00526 C 636.04892 405.44021 635.93015 405.64974 634.81422 406.18188 C 633.65377 406.73527 633.50938 406.7257 632.40844 406.02863 C 631.43411 405.41174 631.23736 405.05403 631.23736 403.90116 C 631.23736 402.7122 631.41124 402.42194 632.46193 401.8561 C 633.03552 401.54721 633.36025 401.39198 633.68001 401.3855 z M 639.23181 401.3855 C 639.55157 401.37902 639.86636 401.5209 640.41952 401.80695 C 641.46905 402.34968 641.60073 402.59461 641.60073 404.00526 C 641.60073 405.44021 641.48195 405.64974 640.36603 406.18188 C 639.20557 406.73527 639.06119 406.7257 637.96025 406.02863 C 636.98592 405.41174 636.78916 405.05403 636.78916 403.90116 C 636.78916 402.7122 636.96304 402.42194 638.01374 401.8561 C 638.58732 401.54721 638.91205 401.39198 639.23181 401.3855 z M 601.434 401.73538 C 601.54544 401.81755 601.67211 401.89734 601.82436 401.96671 C 602.59436 402.31754 602.73809 402.63931 602.73809 404.01177 C 602.73809 405.4992 602.63385 405.68414 601.5352 406.14357 C 601.15652 406.30193 600.78818 406.42341 600.50364 406.49562 C 600.11089 405.71065 599.77428 404.87187 599.5899 403.59393 A 0.75590497 0.75590497 0 0 0 599.77352 403.50936 C 600.32711 402.91318 600.88071 402.32977 601.434 401.73538 z M 588.80726 402.47201 C 589.86419 402.50981 590.84246 402.61103 591.63882 402.88478 C 592.84917 403.30084 593.8678 404.1789 595.33207 405.38092 C 596.79634 406.58293 598.62225 408.01579 599.55304 408.75176 C 600.00848 409.11188 600.22685 409.28528 600.34605 409.3814 C 600.91645 410.38179 601.47803 411.4308 601.88653 412.672 C 602.4203 414.29384 602.71543 416.23726 602.63111 418.72477 C 602.54681 421.21228 602.07694 424.25799 601.25617 428.23223 C 600.4354 432.20647 599.26552 437.10203 598.18749 440.91825 C 597.10946 444.73447 596.12432 447.47781 594.98075 450.32596 C 593.83717 453.17412 592.53825 456.11866 591.23617 459.07005 A 0.75590497 0.75590497 0 0 0 591.62075 460.06619 A 0.75590497 0.75590497 0 0 0 592.61906 459.67945 C 593.92114 456.72806 595.22637 453.76944 596.38316 450.88837 C 597.35183 448.47583 598.21971 446.07428 599.11713 443.09922 C 601.49685 442.24913 603.92225 441.37748 607.26195 439.83608 C 610.67566 438.26052 614.98729 436.02146 619.33568 434.57199 C 623.68407 433.12251 628.15897 432.43105 631.82651 431.73247 C 635.49406 431.03389 638.28625 430.35754 640.06024 430.35753 C 641.83422 430.35752 642.72072 430.92302 643.8106 431.76139 C 644.90048 432.59976 645.90872 433.53397 646.62337 435.08235 C 647.33801 436.63073 647.76 438.88526 647.59783 440.91247 C 647.43565 442.93968 646.72391 444.77933 645.16964 447.00572 C 643.61538 449.23211 641.22979 451.79376 638.15398 454.2715 C 635.07817 456.74924 631.2887 459.16456 626.61519 461.89077 C 621.94169 464.61699 616.38995 467.65211 613.04869 469.47462 C 611.37806 470.38587 610.25697 470.99346 609.58387 471.28547 C 609.47856 471.33117 609.47443 471.3205 609.39231 471.3498 C 609.42061 471.24335 609.42957 471.163 609.48267 471.03318 C 609.68453 470.53976 610.0681 469.9309 610.59375 469.42402 C 611.64504 468.41027 613.54741 467.60053 615.65977 466.16234 C 617.77212 464.72414 619.98305 462.68833 621.85134 460.41969 C 623.71964 458.15105 625.20432 455.69902 626.9723 453.06861 C 628.74027 450.4382 630.82809 447.57345 632.20892 445.16813 C 632.89934 443.96547 633.40368 442.90848 633.6482 442.12476 C 633.77046 441.7329 633.92357 441.47295 633.74001 440.93922 C 633.64821 440.67236 633.23282 440.33202 632.90218 440.32982 C 632.57155 440.32782 632.39586 440.44441 632.22627 440.55464 C 631.54793 440.99555 630.83477 441.85118 629.69904 443.17801 C 628.56331 444.50485 627.11127 446.25927 625.37905 448.29463 C 621.9146 452.36535 617.31556 457.57162 613.58363 461.78089 C 609.8517 465.99016 607.0019 469.18434 603.6858 472.37125 C 600.36969 475.55817 596.58404 478.74118 592.33208 481.57582 C 588.08013 484.41047 583.33495 486.91396 578.88485 489.031 C 574.43474 491.14804 570.27143 492.87504 567.44149 494.6269 C 564.61154 496.37877 563.19117 498.16318 562.03498 499.98641 C 561.45688 500.89802 560.94084 501.80745 560.42004 502.50352 C 559.89924 503.19958 559.39281 503.64403 558.90053 503.78882 C 558.40826 503.93361 557.69311 503.84182 556.83233 503.53147 C 556.15658 503.28789 555.40057 502.91354 554.62752 502.51653 C 555.92125 499.38999 557.21078 496.2799 558.42776 493.51582 C 559.71445 490.59343 560.98144 487.93918 561.27739 484.61558 C 561.57334 481.29198 560.90415 477.46603 560.73667 475.28884 C 560.56919 473.11166 560.75547 472.7542 561.74221 471.41053 C 562.72897 470.06685 564.51534 467.96186 566.75619 464.11728 C 568.99704 460.2727 571.6915 454.70376 574.00172 449.29873 C 576.31194 443.89369 578.22905 438.66698 579.77546 434.00597 C 581.32187 429.34496 582.49225 425.27321 584.10919 420.832 C 584.44961 419.89697 584.82658 418.94283 585.19353 417.98742 C 585.19853 417.97942 585.20371 417.97114 585.20871 417.96284 A 0.75590497 0.75590497 0 0 0 585.29834 417.71272 C 586.64241 414.22137 588.02912 410.71914 588.7516 407.98405 C 589.22128 406.20602 589.41992 404.74506 589.18172 403.50574 C 589.11022 403.13357 588.97395 402.7934 588.80726 402.47201 z M 647.55735 406.24405 C 647.86287 406.25914 648.18508 406.4489 648.79638 406.8267 C 649.10455 407.01716 649.39176 407.14919 649.63783 407.23369 C 648.8072 408.63746 647.93215 410.01973 647.02385 411.4055 C 646.88866 411.29658 646.72478 411.18073 646.50699 411.05417 C 645.46757 410.45015 645.30595 410.15588 645.3041 408.86309 C 645.30211 407.59301 645.46929 407.27134 646.42024 406.7096 C 646.96333 406.38879 647.25183 406.22897 647.55735 406.24405 z M 603.09087 406.2614 C 603.39082 406.25191 603.69327 406.38391 604.20846 406.65032 C 605.20114 407.16366 605.32894 407.4176 605.32894 408.8761 C 605.32894 410.34473 605.20425 410.58674 604.17592 411.11851 C 603.65605 411.38734 603.30178 411.49274 603.03014 411.47489 C 602.65345 410.51546 602.2284 409.64651 601.78677 408.86237 A 0.75590497 0.75590497 0 0 0 601.57641 408.44887 C 601.57241 408.44487 601.54026 408.4183 601.53376 408.412 C 601.39848 408.17825 601.25855 407.91239 601.12894 407.69128 C 601.10021 407.64227 601.08195 407.59569 601.05376 407.54743 C 601.24543 407.27275 601.58492 406.95838 601.98773 406.72044 C 602.49344 406.42171 602.79091 406.2709 603.09087 406.2614 z M 608.64267 406.2614 C 608.94263 406.25191 609.24508 406.38391 609.76026 406.65032 C 610.75295 407.16366 610.88074 407.4176 610.88074 408.8761 C 610.88074 410.32508 610.74941 410.59049 609.78845 411.08742 C 609.18786 411.398 608.64656 411.63664 608.58556 411.61803 C 608.52456 411.59942 608.01729 411.30795 607.45785 410.97032 C 606.61814 410.46354 606.44039 410.09578 606.44002 408.86309 C 606.43946 407.59924 606.60846 407.27044 607.53954 406.72044 C 608.04524 406.42171 608.34271 406.2709 608.64267 406.2614 z M 614.19447 406.2614 C 614.49443 406.25191 614.79688 406.38391 615.31206 406.65032 C 616.30475 407.16366 616.43255 407.4176 616.43255 408.8761 C 616.43255 410.32508 616.30122 410.59049 615.34026 411.08742 C 614.73967 411.398 614.19837 411.63664 614.13737 411.61803 C 614.07637 411.59942 613.5691 411.30795 613.00966 410.97032 C 612.16994 410.46354 611.99219 410.09578 611.99182 408.86309 C 611.99126 407.59924 612.16026 407.27044 613.09134 406.72044 C 613.59704 406.42171 613.89451 406.2709 614.19447 406.2614 z M 619.74628 406.2614 C 620.04624 406.25191 620.34869 406.38391 620.86387 406.65032 C 621.85656 407.16366 621.98435 407.4176 621.98435 408.8761 C 621.98435 410.32508 621.85302 410.59049 620.89206 411.08742 C 620.29147 411.398 619.75017 411.63664 619.68917 411.61803 C 619.62817 411.59942 619.1209 411.30795 618.56146 410.97032 C 617.72175 410.46354 617.544 410.09578 617.54363 408.86309 C 617.54307 407.59924 617.71206 407.27044 618.64315 406.72044 C 619.14885 406.42171 619.44632 406.2709 619.74628 406.2614 z M 625.29808 406.2614 C 625.59804 406.25191 625.90049 406.38391 626.41567 406.65032 C 627.40836 407.16366 627.53615 407.4176 627.53615 408.8761 C 627.53615 410.32508 627.40483 410.59049 626.44387 411.08742 C 625.84327 411.398 625.30197 411.63664 625.24097 411.61803 C 625.17997 411.59942 624.6727 411.30795 624.11326 410.97032 C 623.27355 410.46354 623.0958 410.09578 623.09543 408.86309 C 623.09487 407.59924 623.26387 407.27044 624.19495 406.72044 C 624.70065 406.42171 624.99812 406.2709 625.29808 406.2614 z M 630.84989 406.2614 C 631.14985 406.25191 631.4523 406.38391 631.96748 406.65032 C 632.96017 407.16366 633.08796 407.4176 633.08796 408.8761 C 633.08796 410.32508 632.95663 410.59049 631.99567 411.08742 C 631.39508 411.398 630.85378 411.63664 630.79278 411.61803 C 630.73178 411.59942 630.22451 411.30795 629.66507 410.97032 C 628.82536 410.46354 628.64761 410.09578 628.64724 408.86309 C 628.64668 407.59924 628.81567 407.27044 629.74676 406.72044 C 630.25246 406.42171 630.54993 406.2709 630.84989 406.2614 z M 636.40169 406.2614 C 636.70165 406.25191 637.0041 406.38391 637.51928 406.65032 C 638.51197 407.16366 638.63976 407.4176 638.63976 408.8761 C 638.63976 410.32508 638.50844 410.59049 637.54747 411.08742 C 636.94688 411.398 636.40558 411.63664 636.34458 411.61803 C 636.28358 411.59942 635.77631 411.30795 635.21687 410.97032 C 634.37716 410.46354 634.19941 410.09578 634.19904 408.86309 C 634.19848 407.59924 634.36748 407.27044 635.29856 406.72044 C 635.80426 406.42171 636.10173 406.2709 636.40169 406.2614 z M 641.9535 406.2614 C 642.25346 406.25191 642.5559 406.38391 643.07109 406.65032 C 644.06377 407.16366 644.19157 407.4176 644.19157 408.8761 C 644.19157 410.32508 644.06024 410.59049 643.09928 411.08742 C 642.49869 411.398 641.95739 411.63664 641.89639 411.61803 C 641.83539 411.59942 641.32812 411.30795 640.76868 410.97032 C 639.92897 410.46354 639.75122 410.09578 639.75085 408.86309 C 639.75028 407.59924 639.91928 407.27044 640.85036 406.72044 C 641.35607 406.42171 641.65354 406.2709 641.9535 406.2614 z M 606.08508 411.08526 C 606.40279 411.08674 606.69291 411.23827 607.20484 411.54068 C 608.12591 412.08477 608.2899 412.41237 608.2899 413.7079 C 608.2899 415.00257 608.13541 415.31154 607.27207 415.74429 C 606.71226 416.02489 606.17096 416.29052 606.06918 416.33417 C 605.96739 416.37782 605.34282 416.14436 604.68123 415.81586 C 604.39301 415.67275 604.17696 415.54979 604.00894 415.42116 C 603.90222 414.50905 603.73022 413.67554 603.51376 412.89465 C 603.59793 412.19486 603.88195 411.96645 604.79906 411.52911 C 605.42208 411.23202 605.76737 411.08377 606.08508 411.08526 z M 644.89422 411.10044 C 645.19283 411.09587 645.44423 411.23064 645.85783 411.50164 C 646.13255 411.68165 646.4401 411.81248 646.70867 411.88405 C 645.81093 413.23826 644.87579 414.60417 643.85325 416.0161 C 643.6922 415.88733 643.49198 415.75894 643.26627 415.6561 C 642.49542 415.30487 642.34097 414.97797 642.34097 413.69706 C 642.34097 412.30137 642.46188 412.1019 643.6494 411.53562 C 644.2502 411.24912 644.5956 411.105 644.89422 411.10044 z M 611.57472 411.12068 C 611.89471 411.12387 612.19539 411.27273 612.71833 411.57032 C 613.67619 412.11541 613.83768 412.42495 613.83953 413.72092 C 613.84151 415.00283 613.6859 415.3122 612.82387 415.74429 C 612.26407 416.02489 611.72276 416.29052 611.62098 416.33417 C 611.5192 416.37782 610.89462 416.14436 610.23303 415.81586 C 609.16627 415.28617 609.03014 415.04582 609.03014 413.68911 C 609.03014 412.30755 609.15451 412.09972 610.31472 411.54646 C 610.91527 411.26008 611.25473 411.11748 611.57472 411.12068 z M 617.12652 411.12068 C 617.44651 411.12387 617.7472 411.27273 618.27013 411.57032 C 619.22799 412.11541 619.38949 412.42495 619.39134 413.72092 C 619.39332 415.00283 619.23771 415.3122 618.37568 415.74429 C 617.81587 416.02489 617.27457 416.29052 617.17279 416.33417 C 617.071 416.37782 616.44642 416.14436 615.78483 415.81586 C 614.71807 415.28617 614.58194 415.04582 614.58194 413.68911 C 614.58194 412.30755 614.70632 412.09972 615.86652 411.54646 C 616.46707 411.26008 616.80653 411.11748 617.12652 411.12068 z M 622.67833 411.12068 C 622.99831 411.12387 623.299 411.27273 623.82194 411.57032 C 624.7798 412.11541 624.94129 412.42495 624.94314 413.72092 C 624.94512 415.00283 624.78951 415.3122 623.92748 415.74429 C 623.36767 416.02489 622.82637 416.29052 622.72459 416.33417 C 622.62281 416.37782 621.99823 416.14436 621.33664 415.81586 C 620.26988 415.28617 620.13375 415.04582 620.13375 413.68911 C 620.13375 412.30755 620.25812 412.09972 621.41833 411.54646 C 622.01888 411.26008 622.35834 411.11748 622.67833 411.12068 z M 628.23013 411.12068 C 628.55012 411.12387 628.85081 411.27273 629.37374 411.57032 C 630.3316 412.11541 630.4931 412.42495 630.49495 413.72092 C 630.49693 415.00283 630.34131 415.3122 629.47929 415.74429 C 628.91948 416.02489 628.37818 416.29052 628.27639 416.33417 C 628.17461 416.37782 627.55003 416.14436 626.88844 415.81586 C 625.82168 415.28617 625.68555 415.04582 625.68555 413.68911 C 625.68555 412.30755 625.80993 412.09972 626.97013 411.54646 C 627.57068 411.26008 627.91014 411.11748 628.23013 411.12068 z M 633.78193 411.12068 C 634.10192 411.12387 634.40261 411.27273 634.92555 411.57032 C 635.8834 412.11541 636.0449 412.42495 636.04675 413.72092 C 636.04873 415.00283 635.89312 415.3122 635.03109 415.74429 C 634.47128 416.02489 633.92998 416.29052 633.8282 416.33417 C 633.72642 416.37782 633.10184 416.14436 632.44025 415.81586 C 631.37349 415.28617 631.23736 415.04582 631.23736 413.68911 C 631.23736 412.30755 631.36173 412.09972 632.52193 411.54646 C 633.12248 411.26008 633.46194 411.11748 633.78193 411.12068 z M 639.33374 411.12068 C 639.65373 411.12387 639.95442 411.27273 640.47735 411.57032 C 641.43521 412.11541 641.59671 412.42495 641.59856 413.72092 C 641.60054 415.00283 641.44492 415.3122 640.58289 415.74429 C 640.02309 416.02489 639.48179 416.29052 639.38 416.33417 C 639.27822 416.37782 638.65364 416.14436 637.99205 415.81586 C 636.92529 415.28617 636.78916 415.04582 636.78916 413.68911 C 636.78916 412.30755 636.91353 412.09972 638.07374 411.54646 C 638.67429 411.26008 639.01375 411.11748 639.33374 411.12068 z M 641.9694 415.85489 C 642.24226 415.84413 642.48848 415.97747 642.90048 416.24742 C 643.11869 416.3904 643.28332 416.48877 643.43687 416.57634 C 642.5246 417.82333 641.49656 419.14387 640.48892 420.45103 C 640.45646 420.42412 640.43476 420.39904 640.39711 420.37152 C 639.97135 420.06019 639.75012 419.40131 639.75012 418.44573 C 639.75012 417.21948 639.9257 416.88938 640.87783 416.32694 C 641.39702 416.02025 641.69654 415.86566 641.9694 415.85489 z M 608.7164 415.90622 C 609.00833 415.90454 609.29253 416.05509 609.80291 416.35658 C 610.72464 416.90106 610.88074 417.22112 610.88074 418.56935 C 610.88074 419.94048 610.73834 420.21934 609.78845 420.71055 C 608.48037 421.38698 608.70003 421.39513 607.45713 420.62453 C 606.61943 420.10515 606.43962 419.7298 606.44147 418.50573 C 606.44347 417.23271 606.60866 416.92534 607.58508 416.36959 C 608.12537 416.06207 608.42447 415.90789 608.7164 415.90622 z M 614.26821 415.90622 C 614.56014 415.90454 614.84434 416.05509 615.35471 416.35658 C 616.27644 416.90106 616.43255 417.22112 616.43255 418.56935 C 616.43255 419.94048 616.29015 420.21934 615.34026 420.71055 C 614.03217 421.38698 614.25184 421.39513 613.00893 420.62453 C 612.17124 420.10515 611.99142 419.7298 611.99327 418.50573 C 611.99527 417.23271 612.16046 416.92534 613.13688 416.36959 C 613.67717 416.06207 613.97628 415.90789 614.26821 415.90622 z M 619.82001 415.90622 C 620.11194 415.90454 620.39614 416.05509 620.90652 416.35658 C 621.82825 416.90106 621.98435 417.22112 621.98435 418.56935 C 621.98435 419.94048 621.84195 420.21934 620.89206 420.71055 C 619.58398 421.38698 619.80364 421.39513 618.56074 420.62453 C 617.72304 420.10515 617.54322 419.7298 617.54507 418.50573 C 617.54708 417.23271 617.71227 416.92534 618.68869 416.36959 C 619.22898 416.06207 619.52808 415.90789 619.82001 415.90622 z M 625.37182 415.90622 C 625.66375 415.90454 625.94795 416.05509 626.45832 416.35658 C 627.38005 416.90106 627.53615 417.22112 627.53615 418.56935 C 627.53615 419.94048 627.39376 420.21934 626.44387 420.71055 C 625.13578 421.38698 625.35545 421.39513 624.11254 420.62453 C 623.27484 420.10515 623.09503 419.7298 623.09688 418.50573 C 623.09888 417.23271 623.26407 416.92534 624.24049 416.36959 C 624.78078 416.06207 625.07989 415.90789 625.37182 415.90622 z M 630.92362 415.90622 C 631.21555 415.90454 631.49975 416.05509 632.01013 416.35658 C 632.93186 416.90106 633.08796 417.22112 633.08796 418.56935 C 633.08796 419.94048 632.94556 420.21934 631.99567 420.71055 C 630.68759 421.38698 630.90725 421.39513 629.66435 420.62453 C 628.82665 420.10515 628.64683 419.7298 628.64868 418.50573 C 628.65069 417.23271 628.81588 416.92534 629.7923 416.36959 C 630.33259 416.06207 630.63169 415.90789 630.92362 415.90622 z M 636.47543 415.90622 C 636.76736 415.90454 637.05156 416.05509 637.56193 416.35658 C 638.48366 416.90106 638.63976 417.22112 638.63976 418.56935 C 638.63976 419.94048 638.49737 420.21934 637.54747 420.71055 C 636.23939 421.38698 636.45905 421.39513 635.21615 420.62453 C 634.37845 420.10515 634.19864 419.7298 634.20049 418.50573 C 634.20249 417.23271 634.36768 416.92534 635.3441 416.36959 C 635.88439 416.06207 636.1835 415.90789 636.47543 415.90622 z M 604.074 416.18742 C 604.13762 416.22612 604.19684 416.26755 604.26556 416.30308 C 605.19482 416.78362 605.32894 417.06028 605.32894 418.49923 C 605.32894 419.95436 605.19986 420.2125 604.21858 420.71995 C 604.14089 420.76012 604.07217 420.81201 603.99882 420.85874 C 604.07045 420.12961 604.11808 419.437 604.1405 418.77537 C 604.17199 417.84662 604.13724 416.9996 604.074 416.18742 z M 611.36219 420.78718 C 611.68178 420.77242 612.0115 420.90992 612.59544 421.18838 C 613.71081 421.72026 613.8417 421.94116 613.8417 423.29923 C 613.8417 424.58137 613.67518 424.91539 612.76676 425.452 C 611.49359 426.20408 611.36848 426.20152 610.04869 425.40501 C 609.22831 424.9099 609.03123 424.52135 609.03086 423.39754 C 609.03031 422.23261 609.22008 421.88862 610.18966 421.29899 C 610.73313 420.96848 611.04259 420.80193 611.36219 420.78718 z M 616.91399 420.78718 C 617.23358 420.77242 617.56331 420.90992 618.14724 421.18838 C 619.26262 421.72026 619.39351 421.94116 619.39351 423.29923 C 619.39351 424.58137 619.22698 424.91539 618.31857 425.452 C 617.04539 426.20408 616.92029 426.20152 615.6005 425.40501 C 614.78012 424.9099 614.58304 424.52135 614.58267 423.39754 C 614.58211 422.23261 614.77188 421.88862 615.74146 421.29899 C 616.28494 420.96848 616.5944 420.80193 616.91399 420.78718 z M 622.4658 420.78718 C 622.78539 420.77242 623.11511 420.90992 623.69905 421.18838 C 624.81442 421.72026 624.94531 421.94116 624.94531 423.29923 C 624.94531 424.58137 624.77878 424.91539 623.87037 425.452 C 622.5972 426.20408 622.47209 426.20152 621.1523 425.40501 C 620.33192 424.9099 620.13484 424.52135 620.13447 423.39754 C 620.13392 422.23261 620.32369 421.88862 621.29327 421.29899 C 621.83674 420.96848 622.1462 420.80193 622.4658 420.78718 z M 628.0176 420.78718 C 628.33719 420.77242 628.66692 420.90992 629.25085 421.18838 C 630.36622 421.72026 630.49712 421.94116 630.49712 423.29923 C 630.49712 424.58137 630.33059 424.91539 629.42218 425.452 C 628.149 426.20408 628.0239 426.20152 626.70411 425.40501 C 625.88373 424.9099 625.68665 424.52135 625.68628 423.39754 C 625.68572 422.23261 625.87549 421.88862 626.84507 421.29899 C 627.38855 420.96848 627.69801 420.80193 628.0176 420.78718 z M 633.5694 420.78718 C 633.889 420.77242 634.21872 420.90992 634.80266 421.18838 C 635.91803 421.72026 636.04892 421.94116 636.04892 423.29923 C 636.04892 424.58137 635.88239 424.91539 634.97398 425.452 C 633.7008 426.20408 633.5757 426.20152 632.25591 425.40501 C 631.43553 424.9099 631.23845 424.52135 631.23808 423.39754 C 631.23752 422.23261 631.4273 421.88862 632.39687 421.29899 C 632.94035 420.96848 633.24981 420.80193 633.5694 420.78718 z M 605.8299 420.80091 C 606.14867 420.78066 606.47497 420.91675 607.0552 421.19344 C 608.158 421.71933 608.2899 421.94396 608.2899 423.29923 C 608.2899 424.58137 608.12337 424.91539 607.21496 425.452 C 605.94178 426.20408 605.81668 426.20152 604.49689 425.40501 C 603.8975 425.04328 603.63094 424.7285 603.53111 424.15585 C 603.64818 423.43084 603.77251 422.68158 603.85496 422.02043 C 604.03326 421.79547 604.26984 421.58703 604.64942 421.3467 C 605.19989 420.99816 605.51113 420.82117 605.8299 420.80091 z M 639.4494 420.81103 C 639.58153 420.8354 639.71129 420.88376 639.84555 420.95561 C 639.91502 420.99279 639.97549 421.0142 640.03928 421.04091 C 639.05577 422.30936 638.07584 423.57659 637.03928 424.87874 C 636.89482 424.67597 636.78916 424.13697 636.78916 423.49007 C 636.78916 422.21799 636.95823 421.90143 637.96314 421.29031 C 638.63046 420.88449 639.05303 420.73793 639.4494 420.81103 z M 581.34847 424.19272 C 580.33342 427.25851 579.42432 430.26076 578.33979 433.52958 C 576.80457 438.15687 574.90213 443.34627 572.6116 448.70524 C 570.32107 454.0642 567.63547 459.6044 565.4492 463.35535 C 563.36143 466.9373 561.76698 468.8528 560.70703 470.27125 C 560.75113 469.22442 560.82595 468.13837 560.97089 466.95318 C 561.29134 464.33458 561.93576 461.23647 562.77378 458.18523 C 563.61179 455.13398 564.63854 452.13828 566.25378 448.41247 C 567.86901 444.68666 570.07334 440.23923 572.2516 436.82235 C 574.42986 433.40546 576.62515 430.95126 578.8104 427.93946 C 579.66714 426.75866 580.51062 425.49084 581.34847 424.19272 z M 603.29617 425.45344 C 603.47227 425.5769 603.70178 425.70713 604.00315 425.86766 C 605.20998 426.51046 605.32894 426.71606 605.32894 428.17079 C 605.32894 429.57279 605.19222 429.83916 604.21496 430.34452 C 603.37665 430.77803 602.91904 430.82354 602.36436 430.52669 C 602.33925 430.51325 602.321 430.50883 602.29713 430.49705 C 602.43736 429.85322 602.61083 429.14795 602.73665 428.53874 C 602.97341 427.39231 603.11661 426.46337 603.29617 425.45344 z M 608.7164 425.52934 C 609.00833 425.52767 609.29253 425.67822 609.80291 425.97971 C 610.72464 426.52419 610.88074 426.84425 610.88074 428.19248 C 610.88074 429.56361 610.73834 429.84247 609.78845 430.33368 C 608.48037 431.01011 608.70003 431.01826 607.45713 430.24766 C 606.61943 429.72828 606.43962 429.35293 606.44147 428.12886 C 606.44347 426.85584 606.60866 426.54846 607.58508 425.99272 C 608.12537 425.6852 608.42447 425.53102 608.7164 425.52934 z M 614.26821 425.52934 C 614.56014 425.52767 614.84434 425.67822 615.35471 425.97971 C 616.27644 426.52419 616.43255 426.84425 616.43255 428.19248 C 616.43255 429.56361 616.29015 429.84247 615.34026 430.33368 C 614.03217 431.01011 614.25184 431.01826 613.00893 430.24766 C 612.17124 429.72828 611.99142 429.35293 611.99327 428.12886 C 611.99527 426.85584 612.16046 426.54846 613.13688 425.99272 C 613.67717 425.6852 613.97628 425.53102 614.26821 425.52934 z M 619.82001 425.52934 C 620.11194 425.52767 620.39614 425.67822 620.90652 425.97971 C 621.82825 426.52419 621.98435 426.84425 621.98435 428.19248 C 621.98435 429.56361 621.84195 429.84247 620.89206 430.33368 C 619.58398 431.01011 619.80364 431.01826 618.56074 430.24766 C 617.72304 429.72828 617.54322 429.35293 617.54507 428.12886 C 617.54708 426.85584 617.71227 426.54846 618.68869 425.99272 C 619.22898 425.6852 619.52808 425.53102 619.82001 425.52934 z M 625.37182 425.52934 C 625.66375 425.52767 625.94795 425.67822 626.45832 425.97971 C 627.38005 426.52419 627.53615 426.84425 627.53615 428.19248 C 627.53615 429.56361 627.39376 429.84247 626.44387 430.33368 C 625.13578 431.01011 625.35545 431.01826 624.11254 430.24766 C 623.27484 429.72828 623.09503 429.35293 623.09688 428.12886 C 623.09888 426.85584 623.26407 426.54846 624.24049 425.99272 C 624.78078 425.6852 625.07989 425.53102 625.37182 425.52934 z M 630.92362 425.52934 C 631.21555 425.52767 631.49975 425.67822 632.01013 425.97971 C 632.93034 426.52329 633.08796 426.84539 633.08796 428.1838 C 633.08796 429.20307 632.91337 429.75972 632.52844 430.04958 C 632.21501 430.11293 631.91375 430.17562 631.54314 430.24621 C 631.10387 430.32988 630.55068 430.43775 630.08579 430.52308 C 629.97454 430.44568 629.84808 430.36157 629.66435 430.24766 C 628.82665 429.72828 628.64683 429.35293 628.64868 428.12886 C 628.65069 426.85584 628.81588 426.54847 629.7923 425.99272 C 630.33259 425.6852 630.63169 425.53102 630.92362 425.52934 z M 636.47253 425.5879 C 635.70116 426.55403 634.94002 427.51375 634.15711 428.48742 C 634.18475 428.31991 634.20016 428.14812 634.20049 427.97272 C 634.20241 426.88172 634.40333 426.52761 635.31663 426.0079 C 635.69978 425.78986 636.12554 425.64591 636.47253 425.5879 z M 605.92243 430.3691 C 606.21539 430.37066 606.51619 430.54912 607.10219 430.90549 C 608.11975 431.5243 608.2899 431.83879 608.2899 433.1038 C 608.2899 434.36439 608.12997 434.6631 607.19761 435.14524 C 605.8486 435.84284 605.75579 435.83929 604.48026 435.05199 C 603.5999 434.50859 603.46286 434.20589 603.55496 433.00838 C 603.63976 431.90575 603.90599 431.45007 604.78894 430.8932 C 605.34435 430.5429 605.62947 430.36754 605.92243 430.3691 z M 611.47423 430.3691 C 611.7672 430.37066 612.068 430.54912 612.65399 430.90549 C 613.67155 431.5243 613.8417 431.83879 613.8417 433.1038 C 613.8417 434.36439 613.68177 434.6631 612.74941 435.14524 C 611.4004 435.84284 611.30759 435.83929 610.03207 435.05199 C 609.1517 434.50859 609.01467 434.20589 609.10677 433.00838 C 609.19157 431.90575 609.45779 431.45007 610.34074 430.8932 C 610.89615 430.5429 611.18127 430.36754 611.47423 430.3691 z M 617.02604 430.3691 C 617.31903 430.37069 617.61987 430.54916 618.2058 430.90549 C 619.1202 431.46157 619.39351 431.88397 619.39351 432.74308 C 619.39351 432.82515 619.40304 432.89798 619.40869 432.97512 C 619.22439 433.03389 619.04132 433.07565 618.85712 433.13705 C 617.54859 433.57323 616.26281 434.08054 614.99905 434.6103 C 614.19503 433.6208 614.60072 431.70691 615.89255 430.89247 C 616.4479 430.54236 616.73305 430.36751 617.02604 430.3691 z M 622.4723 430.4197 C 622.77452 430.38932 623.05831 430.50279 623.51832 430.74067 C 623.92487 430.9509 624.36008 431.28631 624.6482 431.59079 C 623.17119 431.91399 621.66081 432.30347 620.13592 432.76259 C 620.14197 431.97294 620.43919 431.518 621.3164 430.96259 C 621.84985 430.62483 622.17009 430.45009 622.4723 430.4197 z M 628.39133 430.44645 C 628.48863 430.46118 628.57591 430.49134 628.65013 430.53826 C 628.75831 430.60666 628.92477 430.65962 629.08314 430.7132 C 628.24114 430.8676 627.4277 431.02009 626.52917 431.19753 C 627.18658 430.67733 627.91248 430.37395 628.39133 430.44645 z M 602.13448 431.22284 C 602.15233 431.23833 602.16405 431.25272 602.18291 431.26838 C 602.50246 431.53358 602.73809 432.34081 602.73809 433.1703 C 602.73809 434.44332 602.59239 434.6809 601.48677 435.20813 C 601.36444 435.26647 601.28863 435.32066 601.18749 435.37585 C 601.53411 433.95069 601.82687 432.61038 602.13448 431.22284 z M 603.16894 435.15175 C 603.46283 435.15175 603.75238 435.30636 604.2793 435.61585 C 605.29555 436.21274 605.37526 436.40667 605.2646 438.02307 C 605.2366 438.43203 605.21962 438.77394 605.20749 439.07343 C 604.25268 439.49047 603.30044 439.90471 602.47352 440.22861 C 602.30513 440.08098 602.07182 439.91977 601.81279 439.78114 C 601.05708 439.3767 600.88781 439.00876 600.88966 437.77512 C 600.89168 436.4762 601.05228 436.1742 602.03328 435.61585 C 602.57703 435.30636 602.87505 435.15175 603.16894 435.15175 z M 608.7164 435.15247 C 609.00833 435.1508 609.29253 435.30135 609.80291 435.60283 C 610.25653 435.87079 610.64222 436.22536 610.8005 436.49488 C 609.33907 437.18493 607.85963 437.8938 606.62725 438.46259 C 606.53207 438.50652 606.46566 438.52969 606.37207 438.57247 C 606.41328 438.34343 606.44105 438.0933 606.44147 437.79825 C 606.44349 436.4737 606.59969 436.1767 607.58508 435.61585 C 608.12537 435.30833 608.42447 435.15415 608.7164 435.15247 z M 600.4393 440.05223 C 600.6638 440.07139 600.92897 440.17099 601.25906 440.35367 C 601.4067 440.43538 601.51196 440.48275 601.63496 440.54452 C 600.96949 440.79675 600.28781 441.06136 599.65279 441.29054 C 599.74743 440.95511 599.84278 440.54148 599.93834 440.19175 C 600.0873 440.09083 600.24678 440.0358 600.4393 440.05223 z M 631.1976 443.78885 C 631.06814 444.03388 631.04819 444.15525 630.89832 444.41632 C 629.58814 446.69855 627.50989 449.56166 625.71881 452.22644 C 623.92773 454.89122 622.46146 457.30048 620.68387 459.45897 C 618.90629 461.61747 616.77575 463.57431 614.80821 464.9139 C 613.16736 466.03108 611.56652 466.74347 610.27857 467.71944 C 611.68259 466.18542 613.09991 464.60661 614.71496 462.78499 C 618.44841 458.57401 623.05129 453.36466 626.53134 449.2756 C 628.27136 447.23107 629.72652 445.47027 630.84772 444.16042 C 631.02566 443.95253 631.03308 443.97479 631.1976 443.78885 z "
       transform="matrix(2.7018243,0,0,2.7018243,-931.24833,-860.0582)" />
  </g>
</svg>
